<svg xmlns="http://www.w3.org/2000/svg" width="219.344" height="65.801" viewBox="0 0 219.344 65.801"><path id="Path_18272" d="M.933 47.955a.926.926 0 1 1 1.851-.055c.316 9.88 6.893 15.549 18.047 15.549 11.362 0 18.7-5.964 18.7-15.194 0-.166 0-.33-.008-.493a.926.926 0 0 1 1.852-.051c0 .18.008.361.008.545 0 10.2-8.261 17.046-20.556 17.046C8.718 65.3 1.279 58.816.933 47.955ZM118.6 63.645v-3.061h.7V63.6c0 .644.157 1.01.855 1.01s.855-.365.855-1.01v-3.016h.7v3.061a1.555 1.555 0 1 1-3.109 0Zm-12.39.408v-.143h.7a.687.687 0 0 0 .748.7c.392 0 .76-.19.76-.637 0-.5-.523-.7-1.046-.944s-1.051-.543-1.051-1.228a1.31 1.31 0 0 1 1.418-1.276 1.263 1.263 0 0 1 1.33 1.133v.089h-.7c.027-.387-.278-.585-.645-.585s-.706.143-.706.578c0 .332.265.508.53.631l.407.19c.625.3 1.16.625 1.16 1.4a1.471 1.471 0 0 1-2.9.088Zm-17.38 0v-.143h.7a.687.687 0 0 0 .747.7c.393 0 .76-.19.76-.637 0-.5-.522-.7-1.045-.944s-1.052-.543-1.052-1.228a1.31 1.31 0 0 1 1.418-1.276 1.263 1.263 0 0 1 1.33 1.133v.089h-.7c.027-.387-.278-.585-.644-.585s-.706.143-.706.578c0 .332.265.508.529.631l.407.19c.625.3 1.161.625 1.161 1.4a1.471 1.471 0 0 1-2.9.088Zm-17.382 0v-.143h.7a.687.687 0 0 0 .747.7c.392 0 .76-.19.76-.637 0-.5-.522-.7-1.045-.944s-1.051-.543-1.051-1.228a1.31 1.31 0 0 1 1.418-1.276 1.263 1.263 0 0 1 1.33 1.133v.089h-.7c.028-.387-.278-.585-.644-.585s-.706.143-.706.578c0 .332.266.508.53.631l.408.19c.625.3 1.16.625 1.16 1.4a1.471 1.471 0 0 1-2.9.088Zm81.839-1.174c0-.931.461-2.355 1.629-2.355s1.628 1.425 1.628 2.355c0 1.011-.454 2.368-1.628 2.368s-1.631-1.358-1.631-2.369Zm.7.034c0 .576.129 1.7.93 1.7s.929-1.12.929-1.7-.121-1.751-.929-1.751-.933 1.16-.933 1.75Zm21.876 2.274v-4.6h.434a2.335 2.335 0 0 1 2.409 2.395 2.125 2.125 0 0 1-2.32 2.206Zm.7-.638a1.435 1.435 0 0 0 1.445-1.581 1.669 1.669 0 0 0-1.445-1.744Zm-18.338.638v-4.6h1.486c.862 0 1.711.3 1.711 1.316a.9.9 0 0 1-.591.868v.014a1.007 1.007 0 0 1 .7 1.031 1.365 1.365 0 0 1-1.534 1.372Zm.7-.638h.943c.5 0 .963-.122.963-.733 0-.644-.461-.766-1-.766h-.909Zm0-2.076h.923c.435 0 .876-.048.876-.6s-.529-.644-.971-.644h-.827Zm-25.345 2.714-1.052-1.907h-.556v1.907h-.7v-4.6h1.328a1.312 1.312 0 0 1 1.487 1.343 1.153 1.153 0 0 1-.916 1.209l1.2 2.049Zm-1.608-2.545h.516c.563 0 .909-.136.909-.739s-.421-.679-.916-.679h-.508Zm-18.025 2.545v-4.6h.435a2.336 2.336 0 0 1 2.408 2.395 2.125 2.125 0 0 1-2.321 2.206Zm.7-.638a1.435 1.435 0 0 0 1.446-1.581 1.669 1.669 0 0 0-1.446-1.744Zm-57.73.638v-4.6h.434a2.336 2.336 0 0 1 2.409 2.395 2.125 2.125 0 0 1-2.321 2.206Zm.7-.638a1.435 1.435 0 0 0 1.446-1.581 1.669 1.669 0 0 0-1.446-1.744Zm160.065.637-.841-1.744-.848 1.744h-.814l1.29-2.368-1.29-2.233h.814l.848 1.595.841-1.595h.818l-1.236 2.233 1.236 2.368Zm-6.909 0v-.637h.828v-3.326h-.701v-.638h2.076v.638h-.686v3.325h.828v.637Zm-2.717 0-.333-1.323h-1.329l-.326 1.323h-.706l1.256-4.6h.882l1.256 4.6Zm-1.5-1.962h1.012l-.5-1.994h-.013Zm-5.764 1.962v-4.6h1.553c.917 0 1.562.414 1.562 1.372s-.754 1.329-1.609 1.329h-.807v1.9Zm.7-2.538h.821c.482 0 .9-.149.9-.706 0-.6-.366-.72-.888-.72h-.828Zm-5.929 2.538-.332-1.323h-1.33l-.326 1.323h-.706l1.255-4.6h.888l1.255 4.6Zm-1.5-1.962h1.012l-.495-1.994h-.014Zm-5.7 1.962v-4.6h.7v3.964h2.355v.637Zm-7.589 0v-4.6h2.754v.638h-2.056v1.241h1.791v.635h-1.791v1.445h2.128v.637Zm-12.507 0v-4.6h.7v3.964h2.354v.637Zm-4.874 0v-4.6h2.755v.638h-2.068v1.241h1.792v.635h-1.792v1.445h2.138v.637Zm-12.59 0L149.15 61.7h-.014v3.481h-.636v-4.6h.814l1.588 3.339h.014v-3.335h.637v4.6Zm-7.529 0-.842-1.744-.847 1.744h-.814l1.289-2.368-1.289-2.233h.814l.847 1.595.842-1.595h.821l-1.235 2.233 1.235 2.368Zm-6.911 0v-.637h.829v-3.326h-.693v-.638h2.077v.638h-.686v3.325h.827v.637Zm-9.979 0v-4.6h1.553c.916 0 1.561.414 1.561 1.372s-.752 1.329-1.607 1.329h-.808v1.9Zm.7-2.538h.822c.481 0 .9-.149.9-.706 0-.6-.366-.72-.888-.72h-.829Zm-23.307 2.538-.332-1.323H102.1l-.326 1.323h-.706l1.255-4.6h.889l1.256 4.6Zm-1.5-1.962h1.011l-.5-1.994h-.014ZM96.5 65.186v-4.6h1.553c.916 0 1.561.414 1.561 1.372s-.752 1.329-1.607 1.329H97.2v1.9Zm.7-2.538h.823c.481 0 .895-.149.895-.706 0-.6-.366-.72-.888-.72h-.83Zm-13.119 2.538v-4.6h2.754v.638H84.78v1.241h1.791v.635H84.78v1.445h2.137v.637Zm-4.9 0v-4.6h.7v3.964h2.355v.637Zm-10.4 0L67.134 61.7h-.013v3.481h-.637v-4.6h.816l1.588 3.339h.012v-3.335h.637v4.6Zm-4.665 0-.332-1.323H62.45l-.326 1.323h-.706l1.255-4.6h.89l1.255 4.6Zm-1.5-1.962h1.011l-.5-1.994h-.013ZM16 53.258a6 6 0 0 1-1.91-4.455v-.877a.926.926 0 1 1 1.851 0v.874a4.168 4.168 0 0 0 1.317 3.1 5.419 5.419 0 0 0 4.159 1.242c3.568-.267 4.459-1.653 4.744-3.8a5.62 5.62 0 0 0 0-1.526.926.926 0 1 1 1.846-.156 7.431 7.431 0 0 1 0 1.923c-.455 3.44-2.442 5.108-6.442 5.409q-.352.026-.7.026A7.028 7.028 0 0 1 16 53.258ZM75.164 47.7a10.916 10.916 0 0 1-2.659-7.242c0-6 4.078-10.285 9.782-10.285a9.615 9.615 0 0 1 7.448 3.133l-2.63 2.66a6.5 6.5 0 0 0-4.605-2.035c-3.46 0-5.882 2.66-5.882 6.442s2.542 6.532 6.089 6.532a5.459 5.459 0 0 0 4.4-2.01l2.452 2.778a9.837 9.837 0 0 1-7.33 2.985 9.084 9.084 0 0 1-7.065-2.958Zm-18.355-3.188h3.931v.265a2.451 2.451 0 0 0 2.69 2.3 2.349 2.349 0 0 0 2.6-2.1 1.963 1.963 0 0 0-.8-1.567 7.951 7.951 0 0 0-2.394-1.093c-4.315-1.537-5.852-3.163-5.852-6.178 0-3.577 2.63-5.971 6.5-5.971 3.842 0 6.325 2.246 6.65 6.029h-4.073a2.327 2.327 0 0 0-2.571-2.452 2.143 2.143 0 0 0-2.423 2.069 2.066 2.066 0 0 0 1.211 1.861 13.83 13.83 0 0 0 2.3.976 11.059 11.059 0 0 1 4.108 2.187 5.1 5.1 0 0 1 1.567 3.812c0 3.605-2.719 6-6.8 6-4.131.009-6.672-2.35-6.644-6.138ZM213.1 50.275l-5.409-7.833v7.833h-4.05V30.561h6.089c4.877 0 7.507 2.157 7.507 6.207a5.68 5.68 0 0 1-4.67 5.94l5.439 7.567Zm-5.409-10.2h1.832c2.306 0 3.606-1.123 3.606-3.1a2.938 2.938 0 0 0-3.252-3.074h-2.187Zm-35.91 10.2 9.222-16.4h-8.188v-3.31h14.512l-9.193 16.4h8.306v3.31Zm17.5 0V30.561h10.965v3.31h-6.916v4.847h6.916v3.309h-6.916v4.937h6.916v3.309Zm-27.014 0v-16.4h-4.7v-3.31h13.418v3.31h-4.669v16.4Zm-10.876 0V30.561h4.049v19.714Zm-14.364 0V30.561h10.965v3.31h-6.916v4.847h6.916v3.309h-6.916v4.937h6.916v3.309Zm-11.468 0-3.1-12.916-3.1 12.916h-4.079l-5.379-19.714h4.286L117.342 43l3.191-12.443h4.019l3.073 12.649 3.281-12.649h4.227l-5.5 19.714Zm-21.84 0v-8.069h-7.481v8.069h-4.05V30.561h4.05V38.9h7.478v-8.339h4.049v19.714ZM1.693 37.854a.926.926 0 1 1 1.467-1.13c3.958 5.141 8.852 5.8 18.059 2.416l.761-.276c5.244-1.9 5.45-1.977 7.21-1.947a3.926 3.926 0 0 1 2.2.736.926.926 0 0 1-1.039 1.533 2.189 2.189 0 0 0-1.159-.417h-.008c-1.414-.023-1.441-.023-6.571 1.837l-.757.275a30.046 30.046 0 0 1-10.076 2.206c-4.246 0-7.375-1.709-10.087-5.233Zm37.7-8c-3.848-4.873-9.214-5.557-17.946-2.281-4.99 1.827-7.89 2.485-9.908 1.018a.927.927 0 1 1 1.088-1.5c1.174.852 3.314.524 8.177-1.256 9.483-3.559 15.666-2.673 20.044 2.87a.926.926 0 1 1-1.448 1.149ZM14.556 21.77c0-.248 0-1.321-.009-2.417-.005-1.152-.01-2.331-.01-2.617 0-3.387 2.68-5.751 6.519-5.751 4.208 0 6.6 2.024 7.466 6.355h11.6c-.913-9.43-7.77-14.811-18.961-14.811-11.249-.001-18.81 6.238-18.81 15.522v3.711a.927.927 0 0 1-.918.933h-.006A.925.925 0 0 1 .5 21.78v-3.729C.5 7.658 8.805.675 21.165.675c12.5 0 20.309 6.557 20.884 17.542a.925.925 0 0 1-.924.975H27.744a.925.925 0 0 1-.915-.788c-.6-4.007-2.221-5.567-5.773-5.567-2.792 0-4.667 1.567-4.667 3.9 0 .285.005 1.461.01 2.609.005 1.1.01 2.175.01 2.426a.926.926 0 0 1-1.852 0Zm45.165-3.395a11.137 11.137 0 0 1-2.713-7.385C57.008 4.87 61.169.5 66.987.5a9.8 9.8 0 0 1 7.6 3.2L71.9 6.409a6.63 6.63 0 0 0-4.7-2.08c-3.527 0-6 2.713-6 6.571s2.592 6.662 6.21 6.662a5.564 5.564 0 0 0 4.491-2.05l2.5 2.834a10.032 10.032 0 0 1-7.475 3.045 9.262 9.262 0 0 1-7.205-3.016ZM135.432 21l-5.517-7.988V21h-4.129V.893h6.21c4.973 0 7.655 2.2 7.655 6.33a5.793 5.793 0 0 1-4.763 6.059l5.548 7.717Zm-5.517-10.4h1.869c2.352 0 3.678-1.146 3.678-3.164a3 3 0 0 0-3.316-3.136h-2.231ZM143.026 21V.891h11.183v3.376h-7.053v4.944h7.053v3.377h-7.053v5.034h7.053V21Zm-28.36 0V4.268h-4.792V.892h13.684v3.376H118.8V21Zm-11 0L95.225 8.277V21H91.1V.892h4.07l8.41 12.54V.892h4.13V21ZM76.45 21V.891h11.183v3.376h-7.054v4.944h7.053v3.377h-7.053v5.034h7.053V21Z" fill="#161615" stroke="rgba(0,0,0,0)" stroke-width="1"/></svg>