<svg xmlns="http://www.w3.org/2000/svg" width="204" height="75.33" viewBox="0 0 204 75.33"><path d="M6.78 52.89v-1.45c0-.5.01-1.11.04-1.52l.11-1.36.16-1.4c.5-3.79 1.56-7.49 3.16-10.97 1.52-3.11 3.25-6.12 5.17-9 .73-1.15 1.38-2.35 1.93-3.6.23-.54.42-1.09.57-1.66.16-.57.26-1.16.3-1.75v-.07.09-.3c0-.12.03-.25.02-.38-.02-.26 0-.51-.05-.78-.06-.54-.17-1.08-.32-1.6-.34-1.12-.81-2.21-1.4-3.22a27.37 27.37 0 0 0-4.41-5.59 42.548 42.548 0 0 0-8.91-6.74C2.26 1.09 1.35.64.41.23.27.17.13.11 0 .06v75.27h12.88A63.208 63.208 0 0 1 7.3 58.41c-.3-1.83-.47-3.67-.52-5.52M10.36 0c1.98 1.14 3.88 2.43 5.68 3.85a33.92 33.92 0 0 1 6.18 6.26c2.33 2.96 3.69 6.56 3.91 10.32.04.96 0 1.93-.11 2.89-.12.99-.31 1.96-.57 2.92a35.17 35.17 0 0 1-1.94 5.19 71.327 71.327 0 0 0-3.59 8.56c-.82 2.62-1.23 5.35-1.23 8.1v1.02l.06 1.05c.02.39.06.58.09.88l.12.93c.2 1.27.48 2.53.85 3.76 1.51 4.72 3.69 9.19 6.47 13.29a89.5 89.5 0 0 0 4.56 6.32H204V0H10.36Z" fill="#29a7df"/><path d="M19.81 55.72c-.37-1.23-.65-2.49-.85-3.76l-.13-.93c-.02-.3-.07-.49-.09-.88l-.04-1.05-.02-1.02c0-2.74.41-5.47 1.23-8.09 1.01-2.93 2.2-5.78 3.59-8.55.78-1.68 1.43-3.41 1.94-5.19.26-.96.45-1.94.57-2.92.12-.96.15-1.92.11-2.89-.21-3.76-1.58-7.36-3.91-10.32a33.864 33.864 0 0 0-6.18-6.25c-1.8-1.42-3.69-2.7-5.68-3.85H0v.05c.13.05.26.1.41.17.94.4 1.86.86 2.75 1.36 3.26 1.84 6.25 4.11 8.91 6.75 1.7 1.66 3.19 3.54 4.41 5.59.6 1.01 1.07 2.09 1.4 3.22.16.52.27 1.06.32 1.6.05.26.02.52.05.78 0 .13-.01.25-.01.38v.31-.09.07c-.05.59-.15 1.18-.31 1.75-.15.57-.34 1.12-.57 1.66-.55 1.25-1.2 2.45-1.93 3.6a77.838 77.838 0 0 0-5.16 9 38.118 38.118 0 0 0-3.15 10.97l-.16 1.4-.11 1.36c-.03.41-.04 1.02-.05 1.52v1.45c.06 1.85.23 3.69.53 5.52a63.091 63.091 0 0 0 5.58 16.92h17.92a95.408 95.408 0 0 1-4.56-6.32c-2.78-4.1-4.96-8.57-6.47-13.29m22.04-16.6h7.11c.24 0 .44-.2.44-.44v-2.08c0-.24-.19-.43-.43-.44-.46 0-.75.13-4.31 1.11-3.11.85-3.1.96-3.1 1.45 0 .17.07.4.31.4m9.83-22.96h-1.93c-.24 0-.44.19-.44.43v11.09l-3.73-7.24c-2.19-4.06-4.26-4.28-4.35-4.29h-.04a.67.67 0 0 0-.18.07c-.03.02-.07.02-.09.04-.08.07-.14.17-.15.28 0 .02-.02.03-.02.05v17.24c0 .24.19.43.43.44h1.93c.24 0 .44-.2.44-.44V22.77l3.73 7.24c1.61 2.99 3.14 3.9 3.91 4.18.14.05.29.09.44.11h.04c.22 0 .41-.17.43-.39l.02-17.28c0-.24-.2-.44-.44-.44m53.64 25.04h-2.2c-.2 0-.37.13-.42.32l-3.54 12.88c-.13-.29-.25-.58-.35-.88l-3.25-12a.43.43 0 0 0-.42-.32h-2.23c-.24 0-.44.19-.44.44 0 .04 0 .08.02.12l3.78 13.11c1.41 4.31 3.83 4.36 3.94 4.36.27 0 .52-.17.6-.43l4.94-17.04a.432.432 0 0 0-.42-.55M61.85 16.16h-2.08c-.24 0-.44.19-.44.43v17.16c0 .24.2.44.44.44h2.08c.24 0 .44-.2.44-.44V16.6c0-.12-.04-.23-.13-.31a.439.439 0 0 0-.31-.13m9.99 6.61c0-3.86 3.12-3.5 3.12-3.5a3.22 3.22 0 0 1 2.99 1.92c.05.11.15.18.26.22.11.04.23.02.34-.03l1.69-.91c.2-.11.29-.35.19-.56v-.02h-.01a5.547 5.547 0 0 0-5.41-3.47c-3.91 0-6.12 2.31-6.12 6.34v5.49c0 4.03 2.21 6.34 6.12 6.34 2.36.12 4.53-1.27 5.41-3.46.1-.21.02-.47-.18-.59l-1.69-.92a.405.405 0 0 0-.34-.03c-.11.04-.21.11-.26.22a3.22 3.22 0 0 1-2.99 1.92c-3.53 0-3.12-3.5-3.12-3.5v-5.46ZM59.41 47.75c0-3.86 3.12-3.5 3.12-3.5a3.22 3.22 0 0 1 2.99 1.92c.05.11.15.19.26.22.11.04.23.02.34-.03l1.69-.91c.2-.11.29-.35.19-.56v-.03h-.01a5.547 5.547 0 0 0-5.41-3.47c-3.91 0-6.12 2.31-6.12 6.34v5.49c0 4.03 2.21 6.34 6.12 6.34a5.52 5.52 0 0 0 5.41-3.47c.1-.21.02-.47-.18-.59l-1.69-.91a.441.441 0 0 0-.59.18 3.212 3.212 0 0 1-2.99 1.93c-3.53 0-3.12-3.5-3.12-3.5v-5.46Zm20.44-6.36h-.09c-3.85.04-6.03 2.34-6.03 6.34v5.49c0 4 2.18 6.3 6.03 6.34h.09c3.85-.03 6.04-2.34 6.04-6.34v-5.49c0-4-2.18-6.3-6.03-6.34m-.04 15.31h-.01c-3.53 0-3.12-3.5-3.12-3.5v-5.45c0-3.86 3.12-3.5 3.12-3.5h.01s3.12-.35 3.12 3.5v5.45s.41 3.5-3.12 3.5m38.36-15.19a.438.438 0 0 0-.42-.32c-.13 0-3.2.05-4.61 4.37l-3.81 13.1c-.07.23.07.47.3.54.04.01.08.02.12.02h2.23c.2 0 .37-.13.42-.32l1.07-3.94h5.35l1.25 3.96c.06.18.23.3.42.3h2.18a.432.432 0 0 0 .42-.55l-4.92-17.15Zm-3.92 10.66s1.17-4.45 1.42-5.26c.13-.55.37-1.06.72-1.51l1.84 6.76h-3.99Zm23.64 4.27h-6.22V41.63c0-.24-.2-.44-.44-.44h-2.09c-.24 0-.44.2-.44.44v17.16c0 .24.2.44.44.44h8.75c.24 0 .44-.2.44-.44v-1.91c0-.24-.2-.44-.44-.44m15.31 0h-6.23V41.63c0-.24-.2-.44-.44-.44h-2.08c-.24 0-.44.2-.44.44v17.16c0 .24.2.44.44.44h8.75c.24 0 .44-.2.44-.44v-1.91c0-.24-.2-.44-.44-.44m6.92-17.31h7.11c.24 0 .44-.19.44-.44v-2.08c0-.24-.19-.43-.43-.44-.46 0-.75.13-4.31 1.11-3.11.85-3.1.96-3.1 1.45 0 .17.07.4.31.4m8.42 2.02h-8.75c-.24 0-.44.19-.44.44v17.16c0 .24.2.44.44.44h8.75c.24 0 .44-.19.44-.43v-1.92c0-.24-.19-.44-.43-.44h-6.26v-4.84h4.18c.24 0 .44-.19.44-.44v-1.91c0-.24-.2-.44-.44-.44h-4.18v-4.84h6.26c.24 0 .44-.19.44-.43v-1.91c0-.24-.2-.44-.44-.44m16.02 2.78c.24 0 .44-.19.44-.43v-1.91c0-.24-.19-.44-.43-.44h-8.75c-.24 0-.44.19-.44.43v17.16c0 .24.19.44.43.44h8.75c.24 0 .44-.2.44-.44v-1.91c0-.24-.19-.44-.43-.44h-6.26v-4.84h4.18c.24 0 .44-.2.44-.44V49.2c0-.24-.19-.44-.43-.44h-4.18v-4.84h6.26ZM49.97 41.14h-8.75c-.24 0-.44.2-.44.44v17.16c0 .24.19.44.43.44h8.75c.24 0 .44-.19.44-.43v-1.92c0-.24-.19-.44-.43-.44h-6.26v-4.84h4.18c.24 0 .44-.19.44-.43V49.2c0-.24-.19-.44-.43-.44h-4.18v-4.84h6.26c.24 0 .44-.19.44-.43v-1.91c0-.24-.2-.44-.44-.44m45.29-24.98h-8.75c-.24 0-.44.19-.44.43v17.16c0 .24.19.44.43.44h8.75c.24 0 .44-.2.44-.44v-1.92c0-.24-.19-.44-.43-.44h-6.26v-4.83h4.18c.24 0 .44-.19.44-.43v-1.92c0-.24-.2-.44-.44-.44h-4.18v-4.84h6.26c.24 0 .44-.19.44-.43v-1.91c0-.24-.19-.44-.43-.44" fill="#fff"/></svg>