<svg xmlns="http://www.w3.org/2000/svg" width="512" height="512" viewBox="0 0 512 512"><path d="M390.24 0h-179c-17.12 0-31.06 13.93-31.06 31.06v163.6l-53.1 42.51c-15.67 14.37-25.18 24.99-25.18 51.15v159.07H90.72v64.62h17.38v-47.24h183.95v47.24h17.38v-64.62h-22.36v-9.55c9.26-7.9 33.55-31.38 33.55-60.05v-36.06h69.63c17.12 0 31.05-13.92 31.05-31.05V31.06C421.3 13.94 407.38 0 390.25 0Zm-179 17.38h136.85v306.97H254.6l24.44-24.44.64-.71c18.4-23 11.44-56.74-6.31-72.63-11.23-10.06-24.86-10.21-34.69-.36l-41.12 41.12V31.06c0-7.54 6.14-13.68 13.68-13.68Zm91.99 360.41c0 25.94-29.79 48.75-30.09 48.98l-3.46 2.61v18.01H119.27V288.32c0-18.82 4.78-24.79 19.11-37.96l41.8-33.44v60.2h7.59l-38.58 38.58 12.29 12.29 89.5-89.5c1.49-1.48 4.59-4.56 10.81 1.02 10.23 9.16 17.02 32.48 4.61 48.47l-30.25 30.25.03 37.83c.68 8.78-2.1 17.29-7.82 23.98-5.72 6.69-13.7 10.75-22.46 11.43-1.71.12-3.44.12-5.16 0l-1.29 17.33c1.29.1 2.58.14 3.87.14s2.61-.05 3.9-.14c13.41-1.04 25.6-7.24 34.34-17.45 8.74-10.22 12.98-23.22 11.96-35.95v-13.67h49.72v36.06Zm100.68-67.11c0 7.54-6.13 13.67-13.67 13.67h-24.77V17.38h24.77c7.53 0 13.67 6.13 13.67 13.68v279.62Z"></path></svg>
