<svg xmlns="http://www.w3.org/2000/svg" width="512" height="512" viewBox="0 0 512 512"><path d="M44.01 236.45c-.15-1.8-.15-4.22.02-6.61 1.98-28.27 26.45-49.65 54.88-47.67 28.27 1.98 49.65 26.6 47.66 54.87l.06 15.52c.32 13.99-4.82 27.26-14.48 37.37-9.66 10.11-22.67 15.86-36.65 16.18h-.41l.21-8.43-.2-8.43c9.48-.21 18.3-4.11 24.85-10.96 6.55-6.85 10.03-15.85 9.81-25.32l-.03-1.2v-15.31c1.36-19.58-13.01-36.11-32-37.46-.82-.06-1.63-.08-2.45-.08-17.94 0-33.13 13.94-34.42 32.11-.11 1.61-.11 3.23 0 4.84l.02 15.9c-.91 19.93 14.26 36.56 33.81 37.46l.61 8.46-.23 8.43-1.19-.04c-28.8-1.33-51.19-25.86-49.86-54.69v-14.92ZM510.86 40.57v192.86c0 28.28-23 51.29-51.28 51.29H303.1l-42.47 56.62a19.037 19.037 0 0 1-12.6 7.48c-.92.13-1.84.2-2.76.2-4.11 0-8.09-1.32-11.43-3.83-4.8-3.57-7.68-9.31-7.68-15.33v-45.14h-13c-22.37 0-40.57-18.2-40.57-40.57V40.57C172.59 18.2 190.79 0 213.16 0h257.13c22.37 0 40.57 18.2 40.57 40.57Zm-16.87 0c0-13.07-10.63-23.7-23.7-23.7H213.15c-13.07 0-23.7 10.63-23.7 23.7v203.57c0 13.07 10.63 23.71 23.7 23.71h21.43c4.66 0 8.43 3.77 8.43 8.43v53.57c0 .72.34 1.4.91 1.82.63.46 1.24.48 1.7.44.43-.07 1.03-.26 1.5-.89l45.01-60.01a8.444 8.444 0 0 1 6.75-3.38h160.7c18.98 0 34.42-15.44 34.42-34.43V40.57Zm-250.92 386.7c-.15 2.68-.83 5.23-2.03 7.6l-7.17 15.29c-4.46 9.95-14.5 16.55-25.53 16.69h-4.77l-10.8 21.99c-2.96 6.13-9.32 10.13-16.18 10.16h-4.93v8.85h-16.87V499H101.5c-2.88-.05-5.63-.72-8.06-1.94-6.27-3.15-9.93-9.45-10.04-16.03l-22.54-4.58V512H43.99v-40.05c-8.15-3.93-14.96-10.49-19.05-18.81l-9.26-20.42c-1.75-3.87-3.41-7.25-4.91-10.33-5.6-11.46-9.64-19.74-9.64-32.92 0-33.87 17.9-68.04 57.91-68.04h61.75c20.85.87 36.17 4.59 49.24 20.36l18.45 22.27h36.4c2.87.05 5.59.72 8.02 1.93 4.37 2.18 7.63 5.95 9.17 10.57 1.54 4.64 1.18 9.59-1.01 13.95L232.03 409c6.94 3.26 11.44 10.34 11.03 18.27ZM40.2 445.93c3.62 7.35 11.17 12.48 19.6 13.15.34.03.68.07 1 .15l28.24 5.75 11.72-23.86-16.01-5.7c-10.47-2.87-19.19-11.21-22.76-22.11l-9.5-23.71c-1.73-4.32.38-9.23 4.7-10.96 4.27-1.71 9.23.36 10.96 4.7l9.69 24.21c1.98 6.02 6.4 10.24 11.98 11.79l18.42 6.54 25.38-51.67c3.03-6.23 9.23-10.12 16.18-10.15h16.8l-9.53-11.51c-8.27-9.97-17.16-13.43-36.62-14.26H59.06c-30.3 0-41.05 27.57-41.05 51.19 0 9.28 2.82 15.05 7.93 25.51 1.56 3.2 3.28 6.72 5.11 10.76l9.15 20.19Zm144.59 20.93h-14.37c-4.4 0-8.05-3.38-8.41-7.76-2.37-29.62 22.26-49.34 23.31-50.16a8.444 8.444 0 0 1 5.21-1.8h23.65l11.78-24.11c.26-.5.2-.89.12-1.14a1.37 1.37 0 0 0-.7-.81l-75.54-.15c-.44 0-.86.27-1.07.7l-28.85 58.75s-.01.02-.02.03l-16.27 33.13c.15.97.15 1.98-.06 3a8.31 8.31 0 0 1-3.07 4.95c.13.21.29.39.53.51l75.54.15c.43 0 .86-.27 1.05-.68l7.17-14.6Zm41.44-40.5c.06-1.23-.9-2.3-2.15-2.36h-30.33c-3.98 3.82-12.64 13.4-14.62 26h29.06c4.46-.07 8.53-2.76 10.36-6.85l7.33-15.63c.25-.51.33-.82.35-1.15Zm227.92-224.84L356.81 51.33c-5.11-8.32-16.03-10.94-24.34-5.83-2.38 1.45-4.41 3.48-5.73 5.66l-97.32 150.15c-5.96 8.64-3.78 20.53 4.89 26.52 2.76 1.89 5.97 3.03 9.96 3.32h68.23v-16.87l-67.56.02c-.39-.03-.77-.16-1.07-.37-1-.69-1.24-2.06-.43-3.25l97.84-150.79c.4-.26.91-.14 1.28.44l97.58 150.55c.22.32.35.69.38 1.08.1 1.19-.81 2.26-1.34 2.32h-68.23v16.87l68.9-.02c10.47-.84 18.31-10.04 17.48-20.5-.27-3.34-1.42-6.56-3.18-9.12Zm-122.24-5.69h16.87v-84.34h-16.87v84.34Zm0 33.73h16.87v-16.87h-16.87v16.87Z"></path></svg>
