<svg xmlns="http://www.w3.org/2000/svg" width="512" height="512" viewBox="0 0 512 512"><path d="m167.44 134.7.86.03h.2c31.33-.72 56.23-26.79 55.51-58.11l-.05-17.21C225.38 28.1 201.09 1.48 169.81.04L168.1 0c-31.32.72-56.22 26.79-55.5 58.11l.05 17.21c-1.44 31.3 22.86 57.92 54.78 59.37Zm1.55-116.96c21.54.99 38.26 19.31 37.27 41.25v16.74l.04 1.29c.49 21.56-16.64 39.5-38.19 39.99l.2 8.86-.68-8.88c-21.54-.99-38.25-19.31-37.26-41.25V59l-.04-1.29c-.49-21.56 16.64-39.5 38.67-39.97ZM325.9 249.85c-19.67 15.35-40.18 25.27-52.26 25.27-7.27 0-23.78-8.5-37.95-16.66v253.53h-17.71V227.02l13.5 8.3c16.55 10.18 37.55 21.48 42.44 22.09 5.45 0 22.07-6.69 41.08-21.53 9.44-7.39 18.58-15.32 27.14-23.58 1.46-1.44 2.31-3.44 2.33-5.59a7.91 7.91 0 0 0-2.3-5.67c-2.22-2.25-5.55-3-8.51-1.89-18.28 6.86-36.71 13.77-45.16 16.91l-5.43 2.02-4.03-4.17c-2.51-2.59-5.03-5.4-7.65-8.29-15.12-16.78-32.24-35.8-68-35.8h-81.91c-32.93 0-49.64 9.49-49.64 61.35v81.9c0 14.18 3.41 37.95 26.25 37.95v17.71c-27.11 0-43.96-21.33-43.96-55.66v-81.9c0-56.16 19.51-79.06 67.36-79.06h81.9c43.63 0 65.32 24.07 81.16 41.65 1.11 1.24 2.21 2.46 3.3 3.64 9.59-3.58 24.64-9.23 39.59-14.83 9.54-3.54 20.24-1.14 27.33 6.05 4.83 4.9 7.46 11.37 7.4 18.25-.05 6.87-2.78 13.31-7.68 18.14a371.1 371.1 0 0 1-28.59 24.85Zm-166.45 74.93h17.71v187.21h-17.71V324.78Zm-58.52-93.61h17.71V512h-17.71V231.17Zm356.95 118.36-24.55 159.63H312.82l-24.55-159.63 17.51-2.7 22.25 144.62h90.1l22.25-144.62 17.51 2.7Zm-99.53-83.26h17.71v35.11h-17.71v-35.11Zm-23.4 93.61v-35.11h17.71v35.11h-17.71Zm64.52 35.11h-17.71v-35.11h17.71v35.11Z"></path></svg>
