<svg width="600" height="58" viewBox="0 0 600 58" fill="none" xmlns="http://www.w3.org/2000/svg">
<path d="M13.558 46L0.276 5.4H10.02L21.562 41.36H16.69L28.754 5.4H37.454L49.054 41.36H44.356L56.188 5.4H65.178L51.896 46H41.804L31.538 14.448H34.206L23.65 46H13.558ZM82.9491 46.464C79.3918 46.464 76.2598 45.768 73.5531 44.376C70.8851 42.984 68.8164 41.0893 67.3471 38.692C65.8778 36.256 65.1431 33.4913 65.1431 30.398C65.1431 27.266 65.8584 24.5013 67.2891 22.104C68.7584 19.668 70.7498 17.7733 73.2631 16.42C75.7764 15.028 78.6184 14.332 81.7891 14.332C84.8438 14.332 87.5891 14.9893 90.0251 16.304C92.4998 17.58 94.4524 19.436 95.8831 21.872C97.3138 24.2693 98.0291 27.15 98.0291 30.514C98.0291 30.862 98.0098 31.268 97.9711 31.732C97.9324 32.1573 97.8938 32.5633 97.8551 32.95H72.5091V27.672H93.0991L89.6191 29.238C89.6191 27.614 89.2904 26.2027 88.6331 25.004C87.9758 23.8053 87.0671 22.8773 85.9071 22.22C84.7471 21.524 83.3938 21.176 81.8471 21.176C80.3004 21.176 78.9278 21.524 77.7291 22.22C76.5691 22.8773 75.6604 23.8247 75.0031 25.062C74.3458 26.2607 74.0171 27.6913 74.0171 29.354V30.746C74.0171 32.4473 74.3844 33.9553 75.1191 35.27C75.8924 36.546 76.9558 37.532 78.3091 38.228C79.7011 38.8853 81.3251 39.214 83.1811 39.214C84.8438 39.214 86.2938 38.9627 87.5311 38.46C88.8071 37.9573 89.9671 37.2033 91.0111 36.198L95.8251 41.418C94.3944 43.042 92.5964 44.2987 90.4311 45.188C88.2658 46.0387 85.7718 46.464 82.9491 46.464ZM139.445 14.332C141.919 14.332 144.123 14.8347 146.057 15.84C148.029 16.8067 149.575 18.3147 150.697 20.364C151.818 22.3747 152.379 24.9653 152.379 28.136V46H143.331V29.528C143.331 27.0147 142.77 25.1587 141.649 23.96C140.566 22.7613 139.019 22.162 137.009 22.162C135.578 22.162 134.283 22.4713 133.123 23.09C132.001 23.67 131.112 24.5787 130.455 25.816C129.836 27.0533 129.527 28.6387 129.527 30.572V46H120.479V2.964H129.527V23.438L127.497 20.828C128.618 18.74 130.223 17.1353 132.311 16.014C134.399 14.8927 136.777 14.332 139.445 14.332ZM176.293 46.464C172.736 46.464 169.604 45.768 166.897 44.376C164.229 42.984 162.16 41.0893 160.691 38.692C159.222 36.256 158.487 33.4913 158.487 30.398C158.487 27.266 159.202 24.5013 160.633 22.104C162.102 19.668 164.094 17.7733 166.607 16.42C169.12 15.028 171.962 14.332 175.133 14.332C178.188 14.332 180.933 14.9893 183.369 16.304C185.844 17.58 187.796 19.436 189.227 21.872C190.658 24.2693 191.373 27.15 191.373 30.514C191.373 30.862 191.354 31.268 191.315 31.732C191.276 32.1573 191.238 32.5633 191.199 32.95H165.853V27.672H186.443L182.963 29.238C182.963 27.614 182.634 26.2027 181.977 25.004C181.32 23.8053 180.411 22.8773 179.251 22.22C178.091 21.524 176.738 21.176 175.191 21.176C173.644 21.176 172.272 21.524 171.073 22.22C169.913 22.8773 169.004 23.8247 168.347 25.062C167.69 26.2607 167.361 27.6913 167.361 29.354V30.746C167.361 32.4473 167.728 33.9553 168.463 35.27C169.236 36.546 170.3 37.532 171.653 38.228C173.045 38.8853 174.669 39.214 176.525 39.214C178.188 39.214 179.638 38.9627 180.875 38.46C182.151 37.9573 183.311 37.2033 184.355 36.198L189.169 41.418C187.738 43.042 185.94 44.2987 183.775 45.188C181.61 46.0387 179.116 46.464 176.293 46.464ZM197.397 46V2.964H206.445V46H197.397ZM233.286 46.464C230.657 46.464 228.356 45.884 226.384 44.724C224.412 43.564 222.865 41.8047 221.744 39.446C220.661 37.0487 220.12 34.0327 220.12 30.398C220.12 26.7247 220.642 23.7087 221.686 21.35C222.73 18.9913 224.238 17.232 226.21 16.072C228.182 14.912 230.541 14.332 233.286 14.332C236.225 14.332 238.854 15.0087 241.174 16.362C243.533 17.6767 245.389 19.5327 246.742 21.93C248.134 24.3273 248.83 27.15 248.83 30.398C248.83 33.6847 248.134 36.5267 246.742 38.924C245.389 41.3213 243.533 43.1773 241.174 44.492C238.854 45.8067 236.225 46.464 233.286 46.464ZM214.842 57.252V14.796H223.484V21.176L223.31 30.456L223.89 39.678V57.252H214.842ZM231.72 39.04C233.228 39.04 234.562 38.692 235.722 37.996C236.921 37.3 237.868 36.314 238.564 35.038C239.299 33.7233 239.666 32.1767 239.666 30.398C239.666 28.5807 239.299 27.034 238.564 25.758C237.868 24.482 236.921 23.496 235.722 22.8C234.562 22.104 233.228 21.756 231.72 21.756C230.212 21.756 228.859 22.104 227.66 22.8C226.461 23.496 225.514 24.482 224.818 25.758C224.122 27.034 223.774 28.5807 223.774 30.398C223.774 32.1767 224.122 33.7233 224.818 35.038C225.514 36.314 226.461 37.3 227.66 37.996C228.859 38.692 230.212 39.04 231.72 39.04ZM289.757 46.464C287.011 46.464 284.653 45.884 282.681 44.724C280.709 43.564 279.201 41.8047 278.157 39.446C277.113 37.0487 276.591 34.0327 276.591 30.398C276.591 26.7247 277.132 23.7087 278.215 21.35C279.336 18.9913 280.883 17.232 282.855 16.072C284.827 14.912 287.127 14.332 289.757 14.332C292.695 14.332 295.325 14.9893 297.645 16.304C300.003 17.6187 301.859 19.4747 303.213 21.872C304.605 24.2693 305.301 27.1113 305.301 30.398C305.301 33.646 304.605 36.4687 303.213 38.866C301.859 41.2633 300.003 43.1387 297.645 44.492C295.325 45.8067 292.695 46.464 289.757 46.464ZM271.313 46V2.964H280.361V21.118L279.781 30.34L279.955 39.62V46H271.313ZM288.191 39.04C289.699 39.04 291.033 38.692 292.193 37.996C293.391 37.3 294.339 36.314 295.035 35.038C295.769 33.7233 296.137 32.1767 296.137 30.398C296.137 28.5807 295.769 27.034 295.035 25.758C294.339 24.482 293.391 23.496 292.193 22.8C291.033 22.104 289.699 21.756 288.191 21.756C286.683 21.756 285.329 22.104 284.131 22.8C282.932 23.496 281.985 24.482 281.289 25.758C280.593 27.034 280.245 28.5807 280.245 30.398C280.245 32.1767 280.593 33.7233 281.289 35.038C281.985 36.314 282.932 37.3 284.131 37.996C285.329 38.692 286.683 39.04 288.191 39.04ZM324.524 46.464C321.933 46.464 319.613 45.9613 317.564 44.956C315.553 43.9507 313.987 42.4233 312.866 40.374C311.744 38.286 311.184 35.6373 311.184 32.428V14.796H320.232V31.094C320.232 33.6847 320.773 35.5987 321.856 36.836C322.977 38.0347 324.543 38.634 326.554 38.634C327.946 38.634 329.183 38.344 330.266 37.764C331.348 37.1453 332.199 36.2173 332.818 34.98C333.436 33.704 333.746 32.1187 333.746 30.224V14.796H342.794V46H334.21V37.416L335.776 39.91C334.732 42.0753 333.185 43.7187 331.136 44.84C329.125 45.9227 326.921 46.464 324.524 46.464ZM361.674 46.464C359.006 46.464 356.435 46.1547 353.96 45.536C351.524 44.8787 349.591 44.0667 348.16 43.1L351.176 36.604C352.607 37.4933 354.289 38.228 356.222 38.808C358.194 39.3493 360.127 39.62 362.022 39.62C364.11 39.62 365.579 39.3687 366.43 38.866C367.319 38.3633 367.764 37.6673 367.764 36.778C367.764 36.0433 367.416 35.502 366.72 35.154C366.063 34.7673 365.173 34.4773 364.052 34.284C362.931 34.0907 361.693 33.8973 360.34 33.704C359.025 33.5107 357.691 33.2593 356.338 32.95C354.985 32.602 353.747 32.0993 352.626 31.442C351.505 30.7847 350.596 29.8953 349.9 28.774C349.243 27.6527 348.914 26.2027 348.914 24.424C348.914 22.452 349.475 20.712 350.596 19.204C351.756 17.696 353.419 16.5167 355.584 15.666C357.749 14.7767 360.34 14.332 363.356 14.332C365.483 14.332 367.648 14.564 369.852 15.028C372.056 15.492 373.893 16.1687 375.362 17.058L372.346 23.496C370.838 22.6067 369.311 22.0073 367.764 21.698C366.256 21.35 364.787 21.176 363.356 21.176C361.345 21.176 359.876 21.4467 358.948 21.988C358.02 22.5293 357.556 23.2253 357.556 24.076C357.556 24.8493 357.885 25.4293 358.542 25.816C359.238 26.2027 360.147 26.512 361.268 26.744C362.389 26.976 363.607 27.1887 364.922 27.382C366.275 27.5367 367.629 27.788 368.982 28.136C370.335 28.484 371.553 28.9867 372.636 29.644C373.757 30.2627 374.666 31.1327 375.362 32.254C376.058 33.3367 376.406 34.7673 376.406 36.546C376.406 38.4793 375.826 40.2 374.666 41.708C373.506 43.1773 371.824 44.3373 369.62 45.188C367.455 46.0387 364.806 46.464 361.674 46.464ZM381.989 46V14.796H391.037V46H381.989ZM386.513 10.446C384.85 10.446 383.497 9.96267 382.453 8.996C381.409 8.02933 380.887 6.83066 380.887 5.4C380.887 3.96933 381.409 2.77066 382.453 1.804C383.497 0.837331 384.85 0.353997 386.513 0.353997C388.175 0.353997 389.529 0.817997 390.573 1.746C391.617 2.63533 392.139 3.79533 392.139 5.226C392.139 6.734 391.617 7.99067 390.573 8.996C389.567 9.96267 388.214 10.446 386.513 10.446ZM418.4 14.332C420.874 14.332 423.078 14.8347 425.012 15.84C426.984 16.8067 428.53 18.3147 429.652 20.364C430.773 22.3747 431.334 24.9653 431.334 28.136V46H422.286V29.528C422.286 27.0147 421.725 25.1587 420.604 23.96C419.521 22.7613 417.974 22.162 415.964 22.162C414.533 22.162 413.238 22.4713 412.078 23.09C410.956 23.67 410.067 24.5787 409.41 25.816C408.791 27.0533 408.482 28.6387 408.482 30.572V46H399.434V14.796H408.076V23.438L406.452 20.828C407.573 18.74 409.178 17.1353 411.266 16.014C413.354 14.8927 415.732 14.332 418.4 14.332ZM455.248 46.464C451.691 46.464 448.559 45.768 445.852 44.376C443.184 42.984 441.115 41.0893 439.646 38.692C438.177 36.256 437.442 33.4913 437.442 30.398C437.442 27.266 438.157 24.5013 439.588 22.104C441.057 19.668 443.049 17.7733 445.562 16.42C448.075 15.028 450.917 14.332 454.088 14.332C457.143 14.332 459.888 14.9893 462.324 16.304C464.799 17.58 466.751 19.436 468.182 21.872C469.613 24.2693 470.328 27.15 470.328 30.514C470.328 30.862 470.309 31.268 470.27 31.732C470.231 32.1573 470.193 32.5633 470.154 32.95H444.808V27.672H465.398L461.918 29.238C461.918 27.614 461.589 26.2027 460.932 25.004C460.275 23.8053 459.366 22.8773 458.206 22.22C457.046 21.524 455.693 21.176 454.146 21.176C452.599 21.176 451.227 21.524 450.028 22.22C448.868 22.8773 447.959 23.8247 447.302 25.062C446.645 26.2607 446.316 27.6913 446.316 29.354V30.746C446.316 32.4473 446.683 33.9553 447.418 35.27C448.191 36.546 449.255 37.532 450.608 38.228C452 38.8853 453.624 39.214 455.48 39.214C457.143 39.214 458.593 38.9627 459.83 38.46C461.106 37.9573 462.266 37.2033 463.31 36.198L468.124 41.418C466.693 43.042 464.895 44.2987 462.73 45.188C460.565 46.0387 458.071 46.464 455.248 46.464ZM486.85 46.464C484.182 46.464 481.61 46.1547 479.136 45.536C476.7 44.8787 474.766 44.0667 473.336 43.1L476.352 36.604C477.782 37.4933 479.464 38.228 481.398 38.808C483.37 39.3493 485.303 39.62 487.198 39.62C489.286 39.62 490.755 39.3687 491.606 38.866C492.495 38.3633 492.94 37.6673 492.94 36.778C492.94 36.0433 492.592 35.502 491.896 35.154C491.238 34.7673 490.349 34.4773 489.228 34.284C488.106 34.0907 486.869 33.8973 485.516 33.704C484.201 33.5107 482.867 33.2593 481.514 32.95C480.16 32.602 478.923 32.0993 477.802 31.442C476.68 30.7847 475.772 29.8953 475.076 28.774C474.418 27.6527 474.09 26.2027 474.09 24.424C474.09 22.452 474.65 20.712 475.772 19.204C476.932 17.696 478.594 16.5167 480.76 15.666C482.925 14.7767 485.516 14.332 488.532 14.332C490.658 14.332 492.824 14.564 495.028 15.028C497.232 15.492 499.068 16.1687 500.538 17.058L497.522 23.496C496.014 22.6067 494.486 22.0073 492.94 21.698C491.432 21.35 489.962 21.176 488.532 21.176C486.521 21.176 485.052 21.4467 484.124 21.988C483.196 22.5293 482.732 23.2253 482.732 24.076C482.732 24.8493 483.06 25.4293 483.718 25.816C484.414 26.2027 485.322 26.512 486.444 26.744C487.565 26.976 488.783 27.1887 490.098 27.382C491.451 27.5367 492.804 27.788 494.158 28.136C495.511 28.484 496.729 28.9867 497.812 29.644C498.933 30.2627 499.842 31.1327 500.538 32.254C501.234 33.3367 501.582 34.7673 501.582 36.546C501.582 38.4793 501.002 40.2 499.842 41.708C498.682 43.1773 497 44.3373 494.796 45.188C492.63 46.0387 489.982 46.464 486.85 46.464ZM517.662 46.464C514.994 46.464 512.423 46.1547 509.948 45.536C507.512 44.8787 505.579 44.0667 504.148 43.1L507.164 36.604C508.595 37.4933 510.277 38.228 512.21 38.808C514.182 39.3493 516.116 39.62 518.01 39.62C520.098 39.62 521.568 39.3687 522.418 38.866C523.308 38.3633 523.752 37.6673 523.752 36.778C523.752 36.0433 523.404 35.502 522.708 35.154C522.051 34.7673 521.162 34.4773 520.04 34.284C518.919 34.0907 517.682 33.8973 516.328 33.704C515.014 33.5107 513.68 33.2593 512.326 32.95C510.973 32.602 509.736 32.0993 508.614 31.442C507.493 30.7847 506.584 29.8953 505.888 28.774C505.231 27.6527 504.902 26.2027 504.902 24.424C504.902 22.452 505.463 20.712 506.584 19.204C507.744 17.696 509.407 16.5167 511.572 15.666C513.738 14.7767 516.328 14.332 519.344 14.332C521.471 14.332 523.636 14.564 525.84 15.028C528.044 15.492 529.881 16.1687 531.35 17.058L528.334 23.496C526.826 22.6067 525.299 22.0073 523.752 21.698C522.244 21.35 520.775 21.176 519.344 21.176C517.334 21.176 515.864 21.4467 514.936 21.988C514.008 22.5293 513.544 23.2253 513.544 24.076C513.544 24.8493 513.873 25.4293 514.53 25.816C515.226 26.2027 516.135 26.512 517.256 26.744C518.378 26.976 519.596 27.1887 520.91 27.382C522.264 27.5367 523.617 27.788 524.97 28.136C526.324 28.484 527.542 28.9867 528.624 29.644C529.746 30.2627 530.654 31.1327 531.35 32.254C532.046 33.3367 532.394 34.7673 532.394 36.546C532.394 38.4793 531.814 40.2 530.654 41.708C529.494 43.1773 527.812 44.3373 525.608 45.188C523.443 46.0387 520.794 46.464 517.662 46.464ZM553.463 46.464C549.905 46.464 546.773 45.768 544.067 44.376C541.399 42.984 539.33 41.0893 537.861 38.692C536.391 36.256 535.657 33.4913 535.657 30.398C535.657 27.266 536.372 24.5013 537.803 22.104C539.272 19.668 541.263 17.7733 543.777 16.42C546.29 15.028 549.132 14.332 552.303 14.332C555.357 14.332 558.103 14.9893 560.539 16.304C563.013 17.58 564.966 19.436 566.397 21.872C567.827 24.2693 568.543 27.15 568.543 30.514C568.543 30.862 568.523 31.268 568.485 31.732C568.446 32.1573 568.407 32.5633 568.369 32.95H543.023V27.672H563.613L560.133 29.238C560.133 27.614 559.804 26.2027 559.147 25.004C558.489 23.8053 557.581 22.8773 556.421 22.22C555.261 21.524 553.907 21.176 552.361 21.176C550.814 21.176 549.441 21.524 548.243 22.22C547.083 22.8773 546.174 23.8247 545.517 25.062C544.859 26.2607 544.531 27.6913 544.531 29.354V30.746C544.531 32.4473 544.898 33.9553 545.633 35.27C546.406 36.546 547.469 37.532 548.823 38.228C550.215 38.8853 551.839 39.214 553.695 39.214C555.357 39.214 556.807 38.9627 558.045 38.46C559.321 37.9573 560.481 37.2033 561.525 36.198L566.339 41.418C564.908 43.042 563.11 44.2987 560.945 45.188C558.779 46.0387 556.285 46.464 553.463 46.464ZM585.065 46.464C582.397 46.464 579.825 46.1547 577.351 45.536C574.915 44.8787 572.981 44.0667 571.551 43.1L574.567 36.604C575.997 37.4933 577.679 38.228 579.613 38.808C581.585 39.3493 583.518 39.62 585.413 39.62C587.501 39.62 588.97 39.3687 589.821 38.866C590.71 38.3633 591.155 37.6673 591.155 36.778C591.155 36.0433 590.807 35.502 590.111 35.154C589.453 34.7673 588.564 34.4773 587.443 34.284C586.321 34.0907 585.084 33.8973 583.731 33.704C582.416 33.5107 581.082 33.2593 579.729 32.95C578.375 32.602 577.138 32.0993 576.017 31.442C574.895 30.7847 573.987 29.8953 573.291 28.774C572.633 27.6527 572.305 26.2027 572.305 24.424C572.305 22.452 572.865 20.712 573.987 19.204C575.147 17.696 576.809 16.5167 578.975 15.666C581.14 14.7767 583.731 14.332 586.747 14.332C588.873 14.332 591.039 14.564 593.243 15.028C595.447 15.492 597.283 16.1687 598.753 17.058L595.737 23.496C594.229 22.6067 592.701 22.0073 591.155 21.698C589.647 21.35 588.177 21.176 586.747 21.176C584.736 21.176 583.267 21.4467 582.339 21.988C581.411 22.5293 580.947 23.2253 580.947 24.076C580.947 24.8493 581.275 25.4293 581.933 25.816C582.629 26.2027 583.537 26.512 584.659 26.744C585.78 26.976 586.998 27.1887 588.313 27.382C589.666 27.5367 591.019 27.788 592.373 28.136C593.726 28.484 594.944 28.9867 596.027 29.644C597.148 30.2627 598.057 31.1327 598.753 32.254C599.449 33.3367 599.797 34.7673 599.797 36.546C599.797 38.4793 599.217 40.2 598.057 41.708C596.897 43.1773 595.215 44.3373 593.011 45.188C590.845 46.0387 588.197 46.464 585.065 46.464Z" fill="#F0F0F0"/>
<path d="M13.558 46L12.6076 46.3109L12.833 47H13.558V46ZM0.276 5.4V4.4H-1.10329L-0.674433 5.71093L0.276 5.4ZM10.02 5.4L10.9722 5.09439L10.7493 4.4H10.02V5.4ZM21.562 41.36V42.36H22.9332L22.5142 41.0544L21.562 41.36ZM16.69 41.36L15.7419 41.0419L15.2997 42.36H16.69V41.36ZM28.754 5.4V4.4H28.0347L27.8059 5.08193L28.754 5.4ZM37.454 5.4L38.4057 5.09299L38.1822 4.4H37.454V5.4ZM49.054 41.36V42.36H50.4273L50.0057 41.053L49.054 41.36ZM44.356 41.36L43.4061 41.0475L42.9742 42.36H44.356V41.36ZM56.188 5.4V4.4H55.4643L55.2381 5.08745L56.188 5.4ZM65.178 5.4L66.1284 5.71093L66.5573 4.4H65.178V5.4ZM51.896 46V47H52.621L52.8464 46.3109L51.896 46ZM41.804 46L40.8531 46.3094L41.0778 47H41.804V46ZM31.538 14.448V13.448H30.161L30.5871 14.7574L31.538 14.448ZM34.206 14.448L35.1543 14.7653L35.595 13.448H34.206V14.448ZM23.65 46V47H24.3699L24.5983 46.3173L23.65 46ZM14.5084 45.6891L1.22643 5.08907L-0.674433 5.71093L12.6076 46.3109L14.5084 45.6891ZM0.276 6.4H10.02V4.4H0.276V6.4ZM9.06784 5.70561L20.6098 41.6656L22.5142 41.0544L10.9722 5.09439L9.06784 5.70561ZM21.562 40.36H16.69V42.36H21.562V40.36ZM17.6381 41.6781L29.7021 5.71806L27.8059 5.08193L15.7419 41.0419L17.6381 41.6781ZM28.754 6.4H37.454V4.4H28.754V6.4ZM36.5023 5.707L48.1023 41.667L50.0057 41.053L38.4057 5.09299L36.5023 5.707ZM49.054 40.36H44.356V42.36H49.054V40.36ZM45.3059 41.6725L57.1379 5.71255L55.2381 5.08745L43.4061 41.0475L45.3059 41.6725ZM56.188 6.4H65.178V4.4H56.188V6.4ZM64.2276 5.08907L50.9456 45.6891L52.8464 46.3109L66.1284 5.71093L64.2276 5.08907ZM51.896 45H41.804V47H51.896V45ZM42.7549 45.6906L32.4889 14.1386L30.5871 14.7574L40.8531 46.3094L42.7549 45.6906ZM31.538 15.448H34.206V13.448H31.538V15.448ZM33.2577 14.1307L22.7017 45.6827L24.5983 46.3173L35.1543 14.7653L33.2577 14.1307ZM23.65 45H13.558V47H23.65V45ZM73.5531 44.376L73.0905 45.2626L73.0958 45.2653L73.5531 44.376ZM67.3471 38.692L66.4908 39.2085L66.4945 39.2146L67.3471 38.692ZM67.2891 22.104L66.4328 21.5875L66.4304 21.5915L67.2891 22.104ZM73.2631 16.42L73.7372 17.3005L73.7476 17.2948L73.2631 16.42ZM90.0251 16.304L89.5502 17.184L89.5585 17.1885L89.5668 17.1928L90.0251 16.304ZM95.8831 21.872L95.0208 22.3784L95.0244 22.3845L95.8831 21.872ZM97.9711 31.732L98.967 31.8225L98.9677 31.815L97.9711 31.732ZM97.8551 32.95V33.95H98.7601L98.8502 33.0495L97.8551 32.95ZM72.5091 32.95H71.5091V33.95H72.5091V32.95ZM72.5091 27.672V26.672H71.5091V27.672H72.5091ZM93.0991 27.672L93.5095 28.5839L93.0991 26.672V27.672ZM89.6191 29.238H88.6191V30.7846L90.0295 30.1499L89.6191 29.238ZM88.6331 25.004L87.7563 25.4848V25.4848L88.6331 25.004ZM85.9071 22.22L85.3926 23.0775L85.4033 23.0839L85.4141 23.09L85.9071 22.22ZM77.7291 22.22L78.2222 23.0901L78.2312 23.0848L77.7291 22.22ZM75.0031 25.062L75.88 25.5429L75.8862 25.5312L75.0031 25.062ZM75.1191 35.27L74.2462 35.7578L74.2548 35.7732L74.2639 35.7883L75.1191 35.27ZM78.3091 38.228L77.8518 39.1173L77.8668 39.125L77.8821 39.1322L78.3091 38.228ZM87.5311 38.46L87.1646 37.5295L87.1547 37.5335L87.5311 38.46ZM91.0111 36.198L91.7462 35.5201L91.0535 34.7689L90.3175 35.4777L91.0111 36.198ZM95.8251 41.418L96.5755 42.079L97.1713 41.4027L96.5602 40.7401L95.8251 41.418ZM90.4311 45.188L90.7968 46.1188L90.8039 46.1159L90.811 46.113L90.4311 45.188ZM82.9491 45.464C79.524 45.464 76.5536 44.7946 74.0105 43.4867L73.0958 45.2653C75.966 46.7414 79.2595 47.464 82.9491 47.464V45.464ZM74.0157 43.4894C71.4965 42.1751 69.5677 40.4015 68.1997 38.1694L66.4945 39.2146C68.0652 41.7772 70.2737 43.7929 73.0905 45.2626L74.0157 43.4894ZM68.2034 38.1755C66.8362 35.9089 66.1431 33.3257 66.1431 30.398H64.1431C64.1431 33.6569 64.9193 36.6031 66.4908 39.2085L68.2034 38.1755ZM66.1431 30.398C66.1431 27.4239 66.8205 24.8406 68.1478 22.6165L66.4304 21.5915C64.8964 24.1621 64.1431 27.1081 64.1431 30.398H66.1431ZM68.1454 22.6205C69.5219 20.3384 71.381 18.5692 73.7372 17.3005L72.789 15.5395C70.1186 16.9775 67.995 18.9976 66.4328 21.5875L68.1454 22.6205ZM73.7476 17.2948C76.0977 15.9932 78.77 15.332 81.7891 15.332V13.332C78.4669 13.332 75.4552 14.0628 72.7786 15.5452L73.7476 17.2948ZM81.7891 15.332C84.6955 15.332 87.2748 15.956 89.5502 17.184L90.5 15.424C87.9035 14.0226 84.9921 13.332 81.7891 13.332V15.332ZM89.5668 17.1928C91.8708 18.3808 93.6845 20.103 95.0208 22.3784L96.7454 21.3656C95.2204 18.769 93.1288 16.7792 90.4834 15.4152L89.5668 17.1928ZM95.0244 22.3845C96.3453 24.5978 97.0291 27.2934 97.0291 30.514H99.0291C99.0291 27.0066 98.2823 23.9408 96.7418 21.3595L95.0244 22.3845ZM97.0291 30.514C97.0291 30.8268 97.0116 31.204 96.9746 31.649L98.9677 31.815C99.0079 31.332 99.0291 30.8972 99.0291 30.514H97.0291ZM96.9752 31.6415C96.9368 32.0641 96.8984 32.4671 96.8601 32.8505L98.8502 33.0495C98.8891 32.6596 98.9281 32.2506 98.967 31.8225L96.9752 31.6415ZM97.8551 31.95H72.5091V33.95H97.8551V31.95ZM73.5091 32.95V27.672H71.5091V32.95H73.5091ZM72.5091 28.672H93.0991V26.672H72.5091V28.672ZM92.6887 26.7601L89.2087 28.3261L90.0295 30.1499L93.5095 28.5839L92.6887 26.7601ZM90.6191 29.238C90.6191 27.4775 90.262 25.8946 89.5099 24.5232L87.7563 25.4848C88.3189 26.5107 88.6191 27.7505 88.6191 29.238H90.6191ZM89.5099 24.5232C88.7657 23.166 87.726 22.1013 86.4001 21.35L85.4141 23.09C86.4082 23.6534 87.1859 24.4447 87.7563 25.4848L89.5099 24.5232ZM86.4216 21.3625C85.085 20.5605 83.5485 20.176 81.8471 20.176V22.176C83.239 22.176 84.4093 22.4875 85.3926 23.0775L86.4216 21.3625ZM81.8471 20.176C80.145 20.176 78.5953 20.5607 77.227 21.3552L78.2312 23.0848C79.2603 22.4873 80.4559 22.176 81.8471 22.176V20.176ZM77.2361 21.35C75.902 22.106 74.8618 23.1965 74.12 24.5928L75.8862 25.5312C76.4591 24.4529 77.2363 23.6487 78.2221 23.09L77.2361 21.35ZM74.1263 24.5812C73.3724 25.9559 73.0171 27.5593 73.0171 29.354H75.0171C75.0171 27.8233 75.3191 26.5654 75.8799 25.5428L74.1263 24.5812ZM73.0171 29.354V30.746H75.0171V29.354H73.0171ZM73.0171 30.746C73.0171 32.5956 73.4178 34.2756 74.2462 35.7578L75.9921 34.7822C75.351 33.6351 75.0171 32.2991 75.0171 30.746H73.0171ZM74.2639 35.7883C75.135 37.2256 76.3375 38.3385 77.8518 39.1173L78.7665 37.3387C77.574 36.7255 76.6499 35.8664 75.9743 34.7517L74.2639 35.7883ZM77.8821 39.1322C79.4323 39.8643 81.2073 40.214 83.1811 40.214V38.214C81.4429 38.214 79.97 37.9064 78.7361 37.3237L77.8821 39.1322ZM83.1811 40.214C84.9423 40.214 86.5253 39.948 87.9075 39.3865L87.1547 37.5335C86.0623 37.9773 84.7453 38.214 83.1811 38.214V40.214ZM87.8976 39.3904C89.3022 38.8371 90.5719 38.0092 91.7048 36.9183L90.3175 35.4777C89.3623 36.3975 88.312 37.0776 87.1646 37.5296L87.8976 39.3904ZM90.276 36.8759L95.09 42.0959L96.5602 40.7401L91.7462 35.5201L90.276 36.8759ZM95.0748 40.757C93.7538 42.2565 92.0862 43.4272 90.0512 44.263L90.811 46.113C93.1067 45.1702 95.0351 43.8275 96.5755 42.079L95.0748 40.757ZM90.0655 44.2572C88.0385 45.0535 85.6726 45.464 82.9491 45.464V47.464C85.871 47.464 88.493 47.0238 90.7968 46.1188L90.0655 44.2572ZM146.057 15.84L145.595 16.7272L145.606 16.7327L145.617 16.7379L146.057 15.84ZM150.697 20.364L149.819 20.844L149.823 20.8511L150.697 20.364ZM152.379 46V47H153.379V46H152.379ZM143.331 46H142.331V47H143.331V46ZM141.649 23.96L140.907 24.6303L140.912 24.6368L140.918 24.6432L141.649 23.96ZM133.123 23.09L133.582 23.9783L133.593 23.9724L133.123 23.09ZM130.455 25.816L129.572 25.3468L129.566 25.3577L129.56 25.3688L130.455 25.816ZM129.527 46V47H130.527V46H129.527ZM120.479 46H119.479V47H120.479V46ZM120.479 2.964V1.964H119.479V2.964H120.479ZM129.527 2.964H130.527V1.964H129.527V2.964ZM129.527 23.438L128.737 24.0519L130.527 26.3525V23.438H129.527ZM127.497 20.828L126.616 20.3549L126.308 20.9282L126.707 21.4419L127.497 20.828ZM132.311 16.014L132.784 16.895L132.311 16.014ZM139.445 15.332C141.781 15.332 143.823 15.8055 145.595 16.7272L146.518 14.9528C144.424 13.8638 142.058 13.332 139.445 13.332V15.332ZM145.617 16.7379C147.391 17.6078 148.791 18.9636 149.819 20.844L151.574 19.884C150.36 17.6658 148.666 16.0055 146.497 14.9421L145.617 16.7379ZM149.823 20.8511C150.836 22.6672 151.379 25.0745 151.379 28.136H153.379C153.379 24.8561 152.8 22.0822 151.57 19.8769L149.823 20.8511ZM151.379 28.136V46H153.379V28.136H151.379ZM152.379 45H143.331V47H152.379V45ZM144.331 46V29.528H142.331V46H144.331ZM144.331 29.528C144.331 26.8918 143.746 24.7382 142.379 23.2768L140.918 24.6432C141.794 25.5792 142.331 27.1376 142.331 29.528H144.331ZM142.391 23.2897C141.074 21.8316 139.228 21.162 137.009 21.162V23.162C138.811 23.162 140.058 23.6911 140.907 24.6303L142.391 23.2897ZM137.009 21.162C135.429 21.162 133.97 21.505 132.652 22.2076L133.593 23.9724C134.596 23.4376 135.727 23.162 137.009 23.162V21.162ZM132.663 22.2018C131.342 22.8853 130.313 23.9506 129.572 25.3468L131.338 26.2852C131.911 25.2068 132.661 24.4547 133.582 23.9782L132.663 22.2018ZM129.56 25.3688C128.85 26.7889 128.527 28.5414 128.527 30.572H130.527C130.527 28.7359 130.822 27.3177 131.349 26.2632L129.56 25.3688ZM128.527 30.572V46H130.527V30.572H128.527ZM129.527 45H120.479V47H129.527V45ZM121.479 46V2.964H119.479V46H121.479ZM120.479 3.964H129.527V1.964H120.479V3.964ZM128.527 2.964V23.438H130.527V2.964H128.527ZM130.316 22.8241L128.286 20.2141L126.707 21.4419L128.737 24.0519L130.316 22.8241ZM128.378 21.3011C129.406 19.3862 130.869 17.9234 132.784 16.895L131.838 15.133C129.577 16.3473 127.83 18.0938 126.616 20.3549L128.378 21.3011ZM132.784 16.895C134.709 15.8612 136.921 15.332 139.445 15.332V13.332C136.633 13.332 134.089 13.9242 131.838 15.133L132.784 16.895ZM166.897 44.376L166.434 45.2626L166.44 45.2653L166.897 44.376ZM160.691 38.692L159.835 39.2085L159.838 39.2146L160.691 38.692ZM160.633 22.104L159.777 21.5875L159.774 21.5915L160.633 22.104ZM166.607 16.42L167.081 17.3005L167.091 17.2948L166.607 16.42ZM183.369 16.304L182.894 17.184L182.902 17.1885L182.911 17.1928L183.369 16.304ZM189.227 21.872L188.365 22.3784L188.368 22.3845L189.227 21.872ZM191.315 31.732L192.311 31.8225L192.311 31.815L191.315 31.732ZM191.199 32.95V33.95H192.104L192.194 33.0495L191.199 32.95ZM165.853 32.95H164.853V33.95H165.853V32.95ZM165.853 27.672V26.672H164.853V27.672H165.853ZM186.443 27.672L186.853 28.5839L186.443 26.672V27.672ZM182.963 29.238H181.963V30.7846L183.373 30.1499L182.963 29.238ZM181.977 25.004L181.1 25.4848V25.4848L181.977 25.004ZM179.251 22.22L178.736 23.0775L178.747 23.0839L178.758 23.09L179.251 22.22ZM171.073 22.22L171.566 23.0901L171.575 23.0848L171.073 22.22ZM168.347 25.062L169.224 25.5429L169.23 25.5312L168.347 25.062ZM168.463 35.27L167.59 35.7578L167.599 35.7732L167.608 35.7883L168.463 35.27ZM171.653 38.228L171.196 39.1173L171.211 39.125L171.226 39.1322L171.653 38.228ZM180.875 38.46L180.508 37.5295L180.498 37.5335L180.875 38.46ZM184.355 36.198L185.09 35.5201L184.397 34.7689L183.661 35.4777L184.355 36.198ZM189.169 41.418L189.919 42.079L190.515 41.4027L189.904 40.7401L189.169 41.418ZM183.775 45.188L184.141 46.1188L184.148 46.1159L184.155 46.113L183.775 45.188ZM176.293 45.464C172.868 45.464 169.897 44.7946 167.354 43.4867L166.44 45.2653C169.31 46.7414 172.603 47.464 176.293 47.464V45.464ZM167.359 43.4894C164.84 42.1751 162.911 40.4015 161.543 38.1694L159.838 39.2146C161.409 41.7772 163.617 43.7929 166.434 45.2626L167.359 43.4894ZM161.547 38.1755C160.18 35.9089 159.487 33.3257 159.487 30.398H157.487C157.487 33.6569 158.263 36.6031 159.835 39.2085L161.547 38.1755ZM159.487 30.398C159.487 27.4239 160.164 24.8406 161.492 22.6165L159.774 21.5915C158.24 24.1621 157.487 27.1081 157.487 30.398H159.487ZM161.489 22.6205C162.866 20.3384 164.725 18.5692 167.081 17.3005L166.133 15.5395C163.462 16.9775 161.339 18.9976 159.777 21.5875L161.489 22.6205ZM167.091 17.2948C169.441 15.9932 172.114 15.332 175.133 15.332V13.332C171.811 13.332 168.799 14.0628 166.122 15.5452L167.091 17.2948ZM175.133 15.332C178.039 15.332 180.619 15.956 182.894 17.184L183.844 15.424C181.247 14.0226 178.336 13.332 175.133 13.332V15.332ZM182.911 17.1928C185.215 18.3808 187.028 20.103 188.365 22.3784L190.089 21.3656C188.564 18.769 186.473 16.7792 183.827 15.4152L182.911 17.1928ZM188.368 22.3845C189.689 24.5978 190.373 27.2934 190.373 30.514H192.373C192.373 27.0066 191.626 23.9408 190.086 21.3595L188.368 22.3845ZM190.373 30.514C190.373 30.8268 190.355 31.204 190.318 31.649L192.311 31.815C192.352 31.332 192.373 30.8972 192.373 30.514H190.373ZM190.319 31.6415C190.281 32.0641 190.242 32.4671 190.204 32.8505L192.194 33.0495C192.233 32.6596 192.272 32.2506 192.311 31.8225L190.319 31.6415ZM191.199 31.95H165.853V33.95H191.199V31.95ZM166.853 32.95V27.672H164.853V32.95H166.853ZM165.853 28.672H186.443V26.672H165.853V28.672ZM186.033 26.7601L182.552 28.3261L183.373 30.1499L186.853 28.5839L186.033 26.7601ZM183.963 29.238C183.963 27.4775 183.606 25.8946 182.854 24.5232L181.1 25.4848C181.663 26.5107 181.963 27.7505 181.963 29.238H183.963ZM182.854 24.5232C182.109 23.166 181.07 22.1013 179.744 21.35L178.758 23.09C179.752 23.6534 180.53 24.4447 181.1 25.4848L182.854 24.5232ZM179.765 21.3625C178.429 20.5605 176.892 20.176 175.191 20.176V22.176C176.583 22.176 177.753 22.4875 178.736 23.0775L179.765 21.3625ZM175.191 20.176C173.489 20.176 171.939 20.5607 170.571 21.3552L171.575 23.0848C172.604 22.4873 173.8 22.176 175.191 22.176V20.176ZM170.58 21.35C169.246 22.106 168.206 23.1965 167.464 24.5928L169.23 25.5312C169.803 24.4529 170.58 23.6487 171.566 23.09L170.58 21.35ZM167.47 24.5812C166.716 25.9559 166.361 27.5593 166.361 29.354H168.361C168.361 27.8233 168.663 26.5654 169.224 25.5428L167.47 24.5812ZM166.361 29.354V30.746H168.361V29.354H166.361ZM166.361 30.746C166.361 32.5956 166.762 34.2756 167.59 35.7578L169.336 34.7822C168.695 33.6351 168.361 32.2991 168.361 30.746H166.361ZM167.608 35.7883C168.479 37.2256 169.681 38.3385 171.196 39.1173L172.11 37.3387C170.918 36.7255 169.994 35.8664 169.318 34.7517L167.608 35.7883ZM171.226 39.1322C172.776 39.8643 174.551 40.214 176.525 40.214V38.214C174.787 38.214 173.314 37.9064 172.08 37.3237L171.226 39.1322ZM176.525 40.214C178.286 40.214 179.869 39.948 181.251 39.3865L180.498 37.5335C179.406 37.9773 178.089 38.214 176.525 38.214V40.214ZM181.241 39.3904C182.646 38.8371 183.916 38.0092 185.049 36.9183L183.661 35.4777C182.706 36.3975 181.656 37.0776 180.508 37.5296L181.241 39.3904ZM183.62 36.8759L188.434 42.0959L189.904 40.7401L185.09 35.5201L183.62 36.8759ZM188.419 40.757C187.098 42.2565 185.43 43.4272 183.395 44.263L184.155 46.113C186.45 45.1702 188.379 43.8275 189.919 42.079L188.419 40.757ZM183.409 44.2572C181.382 45.0535 179.016 45.464 176.293 45.464V47.464C179.215 47.464 181.837 47.0238 184.141 46.1188L183.409 44.2572ZM197.397 46H196.397V47H197.397V46ZM197.397 2.964V1.964H196.397V2.964H197.397ZM206.445 2.964H207.445V1.964H206.445V2.964ZM206.445 46V47H207.445V46H206.445ZM198.397 46V2.964H196.397V46H198.397ZM197.397 3.964H206.445V1.964H197.397V3.964ZM205.445 2.964V46H207.445V2.964H205.445ZM206.445 45H197.397V47H206.445V45ZM226.384 44.724L226.891 43.8621L226.384 44.724ZM221.744 39.446L220.833 39.8576L220.837 39.8665L220.841 39.8754L221.744 39.446ZM221.686 21.35L222.6 21.7547V21.7547L221.686 21.35ZM226.21 16.072L225.703 15.2101L226.21 16.072ZM241.174 16.362L240.67 17.2258L240.679 17.2307L240.687 17.2355L241.174 16.362ZM246.742 21.93L245.871 22.4216L245.877 22.4321L246.742 21.93ZM246.742 38.924L245.877 38.4218L245.871 38.4324L246.742 38.924ZM241.174 44.492L240.687 43.6185L240.681 43.622L241.174 44.492ZM214.842 57.252H213.842V58.252H214.842V57.252ZM214.842 14.796V13.796H213.842V14.796H214.842ZM223.484 14.796H224.484V13.796H223.484V14.796ZM223.484 21.176L224.484 21.1947L224.484 21.1854V21.176H223.484ZM223.31 30.456L222.31 30.4373L222.309 30.478L222.312 30.5188L223.31 30.456ZM223.89 39.678H224.89V39.6466L224.888 39.6152L223.89 39.678ZM223.89 57.252V58.252H224.89V57.252H223.89ZM235.722 37.996L235.22 37.1312L235.214 37.1348L235.208 37.1385L235.722 37.996ZM238.564 35.038L237.691 34.5502L237.686 34.5591L238.564 35.038ZM238.564 25.758L237.686 26.2369L237.692 26.247L237.697 26.257L238.564 25.758ZM235.722 22.8L235.208 23.6575L235.214 23.6612L235.22 23.6648L235.722 22.8ZM227.66 22.8L228.162 23.6648L227.66 22.8ZM224.818 25.758L225.696 26.2369V26.2369L224.818 25.758ZM224.818 35.038L223.934 35.5059L223.94 35.5169L224.818 35.038ZM227.66 37.996L228.162 37.1312L227.66 37.996ZM233.286 45.464C230.808 45.464 228.688 44.9189 226.891 43.8621L225.877 45.5859C228.024 46.8491 230.505 47.464 233.286 47.464V45.464ZM226.891 43.8621C225.115 42.8173 223.695 41.2211 222.647 39.0166L220.841 39.8754C222.036 42.3882 223.709 44.3107 225.877 45.5859L226.891 43.8621ZM222.655 39.0344C221.649 36.8059 221.12 33.9416 221.12 30.398H219.12C219.12 34.1238 219.674 37.2915 220.833 39.8576L222.655 39.0344ZM221.12 30.398C221.12 26.8093 221.631 23.9439 222.6 21.7547L220.772 20.9453C219.653 23.4734 219.12 26.64 219.12 30.398H221.12ZM222.6 21.7547C223.571 19.5619 224.948 17.9746 226.717 16.9339L225.703 15.2101C223.528 16.4894 221.889 18.4207 220.772 20.9453L222.6 21.7547ZM226.717 16.9339C228.507 15.8809 230.683 15.332 233.286 15.332V13.332C230.398 13.332 227.857 13.9431 225.703 15.2101L226.717 16.9339ZM233.286 15.332C236.065 15.332 238.517 15.9699 240.67 17.2258L241.678 15.4982C239.191 14.0474 236.385 13.332 233.286 13.332V15.332ZM240.687 17.2355C242.882 18.4588 244.606 20.1812 245.871 22.4216L247.613 21.4384C246.171 18.8842 244.183 16.8946 241.661 15.4885L240.687 17.2355ZM245.877 22.4321C247.166 24.6525 247.83 27.2958 247.83 30.398H249.83C249.83 27.0042 249.102 24.0021 247.607 21.4279L245.877 22.4321ZM247.83 30.398C247.83 33.5412 247.165 36.2032 245.877 38.4219L247.607 39.4261C249.103 36.8501 249.83 33.8281 249.83 30.398H247.83ZM245.871 38.4324C244.606 40.6728 242.882 42.3952 240.687 43.6185L241.661 45.3655C244.183 43.9594 246.171 41.9698 247.613 39.4156L245.871 38.4324ZM240.681 43.622C238.526 44.843 236.07 45.464 233.286 45.464V47.464C236.379 47.464 239.182 46.7704 241.667 45.362L240.681 43.622ZM215.842 57.252V14.796H213.842V57.252H215.842ZM214.842 15.796H223.484V13.796H214.842V15.796ZM222.484 14.796V21.176H224.484V14.796H222.484ZM222.484 21.1573L222.31 30.4373L224.31 30.4747L224.484 21.1947L222.484 21.1573ZM222.312 30.5188L222.892 39.7408L224.888 39.6152L224.308 30.3932L222.312 30.5188ZM222.89 39.678V57.252H224.89V39.678H222.89ZM223.89 56.252H214.842V58.252H223.89V56.252ZM231.72 40.04C233.388 40.04 234.904 39.6531 236.237 38.8535L235.208 37.1385C234.22 37.7309 233.068 38.04 231.72 38.04V40.04ZM236.224 38.8608C237.589 38.0684 238.663 36.9453 239.442 35.5169L237.686 34.5591C237.073 35.6827 236.253 36.5316 235.22 37.1312L236.224 38.8608ZM239.437 35.5258C240.269 34.0371 240.666 32.3164 240.666 30.398H238.666C238.666 32.0369 238.329 33.4095 237.691 34.5502L239.437 35.5258ZM240.666 30.398C240.666 28.4462 240.271 26.7186 239.431 25.259L237.697 26.257C238.326 27.3494 238.666 28.7151 238.666 30.398H240.666ZM239.442 25.2791C238.663 23.8507 237.589 22.7276 236.224 21.9352L235.22 23.6648C236.253 24.2644 237.073 25.1133 237.686 26.2369L239.442 25.2791ZM236.237 21.9425C234.904 21.1429 233.388 20.756 231.72 20.756V22.756C233.068 22.756 234.22 23.0651 235.208 23.6575L236.237 21.9425ZM231.72 20.756C230.052 20.756 228.522 21.1429 227.158 21.9352L228.162 23.6648C229.195 23.0651 230.372 22.756 231.72 22.756V20.756ZM227.158 21.9352C225.793 22.7276 224.719 23.8507 223.94 25.2791L225.696 26.2369C226.309 25.1133 227.13 24.2644 228.162 23.6648L227.158 21.9352ZM223.94 25.2791C223.146 26.7344 222.774 28.4545 222.774 30.398H224.774C224.774 28.7068 225.098 27.3336 225.696 26.2369L223.94 25.2791ZM222.774 30.398C222.774 32.308 223.148 34.0214 223.934 35.5059L225.702 34.5701C225.096 33.4253 224.774 32.0453 224.774 30.398H222.774ZM223.94 35.5169C224.719 36.9453 225.793 38.0684 227.158 38.8608L228.162 37.1312C227.13 36.5316 226.309 35.6827 225.696 34.5591L223.94 35.5169ZM227.158 38.8608C228.522 39.653 230.052 40.04 231.72 40.04V38.04C230.372 38.04 229.195 37.7309 228.162 37.1312L227.158 38.8608ZM282.681 44.724L283.188 43.8621L282.681 44.724ZM278.157 39.446L277.24 39.8453L277.242 39.8507L278.157 39.446ZM278.215 21.35L277.311 20.9206L277.306 20.9328L278.215 21.35ZM282.855 16.072L282.348 15.2101L282.855 16.072ZM297.645 16.304L297.152 17.174L297.158 17.1775L297.645 16.304ZM303.213 21.872L302.342 22.3636L302.348 22.3741L303.213 21.872ZM303.213 38.866L302.348 38.3638L302.342 38.3744L303.213 38.866ZM297.645 44.492L298.138 45.362L298.142 45.3594L297.645 44.492ZM271.313 46H270.313V47H271.313V46ZM271.313 2.964V1.964H270.313V2.964H271.313ZM280.361 2.964H281.361V1.964H280.361V2.964ZM280.361 21.118L281.359 21.1808L281.361 21.1494V21.118H280.361ZM279.781 30.34L278.783 30.2772L278.78 30.318L278.781 30.3587L279.781 30.34ZM279.955 39.62H280.955V39.6106L280.955 39.6013L279.955 39.62ZM279.955 46V47H280.955V46H279.955ZM292.193 37.996L291.691 37.1312L291.684 37.1348L291.678 37.1385L292.193 37.996ZM295.035 35.038L294.162 34.5502L294.157 34.5591L295.035 35.038ZM295.035 25.758L294.157 26.2369L294.162 26.247L294.168 26.257L295.035 25.758ZM292.193 22.8L291.678 23.6575L291.684 23.6612L291.691 23.6648L292.193 22.8ZM284.131 22.8L284.633 23.6648L284.131 22.8ZM281.289 25.758L282.167 26.2369V26.2369L281.289 25.758ZM281.289 35.038L280.405 35.5059L280.411 35.5169L281.289 35.038ZM284.131 37.996L284.633 37.1312L284.131 37.996ZM289.757 45.464C287.154 45.464 284.978 44.9151 283.188 43.8621L282.174 45.5859C284.328 46.8529 286.869 47.464 289.757 47.464V45.464ZM283.188 43.8621C281.419 42.8214 280.042 41.2341 279.071 39.0413L277.242 39.8507C278.36 42.3753 279.999 44.3066 282.174 45.5859L283.188 43.8621ZM279.074 39.0467C278.101 36.8143 277.591 33.9453 277.591 30.398H275.591C275.591 34.12 276.124 37.283 277.24 39.8453L279.074 39.0467ZM277.591 30.398C277.591 26.813 278.121 23.9524 279.124 21.7672L277.306 20.9328C276.144 23.4649 275.591 26.6363 275.591 30.398H277.591ZM279.118 21.7794C280.166 19.5749 281.586 17.9787 283.362 16.9339L282.348 15.2101C280.18 16.4853 278.506 18.4078 277.312 20.9206L279.118 21.7794ZM283.362 16.9339C285.158 15.8771 287.279 15.332 289.757 15.332V13.332C286.976 13.332 284.495 13.9469 282.348 15.2101L283.362 16.9339ZM289.757 15.332C292.541 15.332 294.997 15.953 297.152 17.174L298.138 15.434C295.652 14.0256 292.85 13.332 289.757 13.332V15.332ZM297.158 17.1775C299.353 18.4008 301.077 20.1232 302.342 22.3636L304.084 21.3804C302.642 18.8262 300.654 16.8366 298.132 15.4305L297.158 17.1775ZM302.348 22.3741C303.636 24.5928 304.301 27.2548 304.301 30.398H306.301C306.301 26.9679 305.573 23.9459 304.078 21.3699L302.348 22.3741ZM304.301 30.398C304.301 33.5002 303.637 36.1435 302.348 38.3639L304.078 39.3681C305.572 36.7939 306.301 33.7918 306.301 30.398H304.301ZM302.342 38.3744C301.076 40.6173 299.348 42.3619 297.147 43.6246L298.142 45.3594C300.659 43.9154 302.643 41.9094 304.084 39.3576L302.342 38.3744ZM297.152 43.622C294.997 44.843 292.541 45.464 289.757 45.464V47.464C292.85 47.464 295.652 46.7704 298.138 45.362L297.152 43.622ZM272.313 46V2.964H270.313V46H272.313ZM271.313 3.964H280.361V1.964H271.313V3.964ZM279.361 2.964V21.118H281.361V2.964H279.361ZM279.363 21.0552L278.783 30.2772L280.779 30.4028L281.359 21.1808L279.363 21.0552ZM278.781 30.3587L278.955 39.6387L280.955 39.6013L280.781 30.3213L278.781 30.3587ZM278.955 39.62V46H280.955V39.62H278.955ZM279.955 45H271.313V47H279.955V45ZM288.191 40.04C289.859 40.04 291.374 39.6531 292.707 38.8535L291.678 37.1385C290.691 37.7309 289.539 38.04 288.191 38.04V40.04ZM292.695 38.8608C294.06 38.0684 295.133 36.9453 295.913 35.5169L294.157 34.5591C293.544 35.6827 292.723 36.5316 291.691 37.1312L292.695 38.8608ZM295.908 35.5258C296.74 34.0371 297.137 32.3164 297.137 30.398H295.137C295.137 32.0369 294.799 33.4095 294.162 34.5502L295.908 35.5258ZM297.137 30.398C297.137 28.4462 296.742 26.7186 295.901 25.259L294.168 26.257C294.797 27.3494 295.137 28.7151 295.137 30.398H297.137ZM295.913 25.2791C295.133 23.8507 294.06 22.7276 292.695 21.9352L291.691 23.6648C292.723 24.2644 293.544 25.1133 294.157 26.2369L295.913 25.2791ZM292.707 21.9425C291.374 21.1429 289.859 20.756 288.191 20.756V22.756C289.539 22.756 290.691 23.0651 291.678 23.6575L292.707 21.9425ZM288.191 20.756C286.522 20.756 284.993 21.1429 283.629 21.9352L284.633 23.6648C285.666 23.0651 286.843 22.756 288.191 22.756V20.756ZM283.629 21.9352C282.264 22.7276 281.19 23.8507 280.411 25.2791L282.167 26.2369C282.779 25.1133 283.6 24.2644 284.633 23.6648L283.629 21.9352ZM280.411 25.2791C279.617 26.7344 279.245 28.4545 279.245 30.398H281.245C281.245 28.7068 281.568 27.3336 282.167 26.2369L280.411 25.2791ZM279.245 30.398C279.245 32.308 279.619 34.0214 280.405 35.5059L282.173 34.5701C281.566 33.4253 281.245 32.0453 281.245 30.398H279.245ZM280.411 35.5169C281.19 36.9453 282.264 38.0684 283.629 38.8608L284.633 37.1312C283.6 36.5316 282.779 35.6827 282.167 34.5591L280.411 35.5169ZM283.629 38.8608C284.993 39.653 286.522 40.04 288.191 40.04V38.04C286.843 38.04 285.666 37.7309 284.633 37.1312L283.629 38.8608ZM317.564 44.956L317.116 45.8505L317.123 45.8538L317.564 44.956ZM312.866 40.374L311.985 40.8471L311.988 40.854L312.866 40.374ZM311.184 14.796V13.796H310.184V14.796H311.184ZM320.232 14.796H321.232V13.796H320.232V14.796ZM321.856 36.836L321.103 37.4945L321.114 37.507L321.125 37.5192L321.856 36.836ZM330.266 37.764L330.738 38.6455L330.75 38.639L330.762 38.6322L330.266 37.764ZM332.818 34.98L333.712 35.4272L333.717 35.4163L332.818 34.98ZM333.746 14.796V13.796H332.746V14.796H333.746ZM342.794 14.796H343.794V13.796H342.794V14.796ZM342.794 46V47H343.794V46H342.794ZM334.21 46H333.21V47H334.21V46ZM334.21 37.416L335.057 36.8842L333.21 33.9429V37.416H334.21ZM335.776 39.91L336.676 40.3443L336.916 39.8464L336.623 39.3782L335.776 39.91ZM331.136 44.84L331.61 45.7205L331.616 45.7173L331.136 44.84ZM324.524 45.464C322.065 45.464 319.899 44.9877 318.004 44.0582L317.123 45.8538C319.327 46.9349 321.801 47.464 324.524 47.464V45.464ZM318.011 44.0616C316.19 43.1511 314.771 41.772 313.743 39.894L311.988 40.854C313.203 43.0746 314.916 44.7503 317.116 45.8504L318.011 44.0616ZM313.747 39.9009C312.726 38.0007 312.184 35.5281 312.184 32.428H310.184C310.184 35.7466 310.762 38.5713 311.985 40.8471L313.747 39.9009ZM312.184 32.428V14.796H310.184V32.428H312.184ZM311.184 15.796H320.232V13.796H311.184V15.796ZM319.232 14.796V31.094H321.232V14.796H319.232ZM319.232 31.094C319.232 33.7944 319.791 35.9952 321.103 37.4945L322.608 36.1775C321.755 35.2022 321.232 33.5749 321.232 31.094H319.232ZM321.125 37.5192C322.477 38.9641 324.333 39.634 326.554 39.634V37.634C324.753 37.634 323.477 37.1052 322.586 36.1528L321.125 37.5192ZM326.554 39.634C328.088 39.634 329.492 39.3131 330.738 38.6455L329.793 36.8825C328.874 37.3749 327.803 37.634 326.554 37.634V39.634ZM330.762 38.6322C332.034 37.9051 333.015 36.8211 333.712 35.4272L331.923 34.5328C331.383 35.6136 330.662 36.3856 329.77 36.8958L330.762 38.6322ZM333.717 35.4163C334.42 33.9666 334.746 32.2214 334.746 30.224H332.746C332.746 32.016 332.452 33.4414 331.918 34.5437L333.717 35.4163ZM334.746 30.224V14.796H332.746V30.224H334.746ZM333.746 15.796H342.794V13.796H333.746V15.796ZM341.794 14.796V46H343.794V14.796H341.794ZM342.794 45H334.21V47H342.794V45ZM335.21 46V37.416H333.21V46H335.21ZM333.363 37.9478L334.929 40.4418L336.623 39.3782L335.057 36.8842L333.363 37.9478ZM334.875 39.4757C333.919 41.4589 332.516 42.9446 330.656 43.9627L331.616 45.7173C333.854 44.4927 335.545 42.6917 336.676 40.3443L334.875 39.4757ZM330.662 43.9595C328.804 44.9598 326.764 45.464 324.524 45.464V47.464C327.078 47.464 329.446 46.8855 331.61 45.7205L330.662 43.9595ZM353.96 45.536L353.699 46.5015L353.708 46.5039L353.717 46.5061L353.96 45.536ZM348.16 43.1L347.253 42.6789L346.894 43.4516L347.6 43.9286L348.16 43.1ZM351.176 36.604L351.704 35.7547L350.745 35.1584L350.269 36.1829L351.176 36.604ZM356.222 38.808L355.935 39.7658L355.946 39.7692L355.957 39.7723L356.222 38.808ZM366.43 38.866L365.938 37.9954L365.93 38.0002L365.921 38.0051L366.43 38.866ZM366.72 35.154L366.213 36.0159L366.242 36.0332L366.273 36.0484L366.72 35.154ZM364.052 34.284L363.882 35.2695L364.052 34.284ZM360.34 33.704L360.195 34.6934L360.199 34.694L360.34 33.704ZM356.338 32.95L356.089 33.9185L356.102 33.9219L356.115 33.9249L356.338 32.95ZM352.626 31.442L353.132 30.5793L352.626 31.442ZM349.9 28.774L349.037 29.2797L349.044 29.2906L349.05 29.3014L349.9 28.774ZM350.596 19.204L349.803 18.5943L349.798 18.6008L349.794 18.6073L350.596 19.204ZM355.584 15.666L355.95 16.5968L355.957 16.5939L355.964 16.591L355.584 15.666ZM369.852 15.028L370.058 14.0494L369.852 15.028ZM375.362 17.058L376.268 17.4822L376.649 16.668L375.88 16.2025L375.362 17.058ZM372.346 23.496L371.838 24.3574L372.785 24.9159L373.252 23.9202L372.346 23.496ZM367.764 21.698L367.539 22.6724L367.553 22.6757L367.568 22.6786L367.764 21.698ZM358.948 21.988L358.444 21.1242L358.948 21.988ZM358.542 25.816L358.035 26.6779L358.046 26.6842L358.056 26.6902L358.542 25.816ZM364.922 27.382L364.777 28.3714L364.792 28.3737L364.808 28.3755L364.922 27.382ZM368.982 28.136L369.231 27.1675L368.982 28.136ZM372.636 29.644L372.117 30.4988L372.135 30.5096L372.153 30.5196L372.636 29.644ZM375.362 32.254L374.512 32.7814L374.517 32.7881L374.521 32.7948L375.362 32.254ZM374.666 41.708L375.451 42.3277L375.459 42.3177L374.666 41.708ZM369.62 45.188L369.26 44.2551L369.254 44.2572L369.62 45.188ZM361.674 45.464C359.084 45.464 356.594 45.1638 354.203 44.5659L353.717 46.5061C356.275 47.1455 358.928 47.464 361.674 47.464V45.464ZM354.221 44.5705C351.847 43.9299 350.027 43.1548 348.72 42.2714L347.6 43.9286C349.154 44.9785 351.201 45.8274 353.699 46.5015L354.221 44.5705ZM349.067 43.5211L352.083 37.0251L350.269 36.1829L347.253 42.6789L349.067 43.5211ZM350.648 37.4533C352.167 38.3974 353.933 39.1653 355.935 39.7658L356.509 37.8502C354.645 37.2907 353.046 36.5893 351.704 35.7547L350.648 37.4533ZM355.957 39.7723C358.009 40.3355 360.031 40.62 362.022 40.62V38.62C360.224 38.62 358.379 38.3632 356.487 37.8437L355.957 39.7723ZM362.022 40.62C364.13 40.62 365.839 40.3768 366.939 39.7269L365.921 38.0051C365.32 38.3605 364.09 38.62 362.022 38.62V40.62ZM366.922 39.7366C368.069 39.0882 368.764 38.088 368.764 36.778H366.764C366.764 37.2467 366.569 37.6385 365.938 37.9954L366.922 39.7366ZM368.764 36.778C368.764 36.2468 368.636 35.7341 368.344 35.2802C368.055 34.8296 367.642 34.4971 367.167 34.2596L366.273 36.0484C366.494 36.1589 366.603 36.271 366.662 36.3618C366.718 36.4492 366.764 36.5745 366.764 36.778H368.764ZM367.227 34.2921C366.428 33.8219 365.409 33.5033 364.222 33.2985L363.882 35.2695C364.937 35.4514 365.698 35.7127 366.213 36.0159L367.227 34.2921ZM364.222 33.2985C363.089 33.1033 361.842 32.9085 360.481 32.7141L360.199 34.694C361.544 34.8862 362.772 35.078 363.882 35.2695L364.222 33.2985ZM360.486 32.7146C359.198 32.5253 357.89 32.2789 356.561 31.9751L356.115 33.9249C357.493 34.2398 358.853 34.496 360.195 34.6934L360.486 32.7146ZM356.587 31.9815C355.317 31.6549 354.167 31.1862 353.132 30.5793L352.12 32.3047C353.328 33.0124 354.652 33.5491 356.089 33.9185L356.587 31.9815ZM353.132 30.5793C352.153 30.0055 351.361 29.2321 350.75 28.2466L349.05 29.3014C349.831 30.5585 350.857 31.5639 352.12 32.3047L353.132 30.5793ZM350.763 28.2683C350.222 27.3467 349.914 26.0877 349.914 24.424H347.914C347.914 26.3176 348.263 27.9586 349.037 29.2797L350.763 28.2683ZM349.914 24.424C349.914 22.6556 350.412 21.1273 351.398 19.8007L349.794 18.6073C348.537 20.2967 347.914 22.2484 347.914 24.424H349.914ZM351.389 19.8137C352.416 18.4784 353.916 17.3959 355.95 16.5968L355.218 14.7352C352.922 15.6375 351.096 16.9136 349.803 18.5943L351.389 19.8137ZM355.964 16.591C357.979 15.7632 360.434 15.332 363.356 15.332V13.332C360.246 13.332 357.519 13.7901 355.204 14.741L355.964 16.591ZM363.356 15.332C365.409 15.332 367.506 15.556 369.646 16.0065L370.058 14.0494C367.79 13.572 365.556 13.332 363.356 13.332V15.332ZM369.646 16.0065C371.772 16.4542 373.496 17.0974 374.844 17.9135L375.88 16.2025C374.289 15.2399 372.34 14.5298 370.058 14.0494L369.646 16.0065ZM374.456 16.6338L371.44 23.0718L373.252 23.9202L376.268 17.4822L374.456 16.6338ZM372.854 22.6346C371.26 21.6946 369.628 21.051 367.96 20.7174L367.568 22.6786C368.993 22.9637 370.416 23.5187 371.838 24.3574L372.854 22.6346ZM367.989 20.7236C366.413 20.36 364.868 20.176 363.356 20.176V22.176C364.705 22.176 366.099 22.34 367.539 22.6724L367.989 20.7236ZM363.356 20.176C361.298 20.176 359.608 20.4454 358.444 21.1242L359.452 22.8518C360.144 22.4479 361.392 22.176 363.356 22.176V20.176ZM358.444 21.1242C357.302 21.7902 356.556 22.7732 356.556 24.076H358.556C358.556 23.6775 358.738 23.2685 359.452 22.8518L358.444 21.1242ZM356.556 24.076C356.556 25.1976 357.067 26.1085 358.035 26.6779L359.049 24.9541C358.702 24.7502 358.556 24.5011 358.556 24.076H356.556ZM358.056 26.6902C358.87 27.1423 359.884 27.4789 361.065 27.7233L361.471 25.7647C360.409 25.5451 359.606 25.263 359.028 24.9418L358.056 26.6902ZM361.065 27.7233C362.208 27.9597 363.446 28.1756 364.777 28.3714L365.068 26.3926C363.769 26.2017 362.57 25.9923 361.471 25.7647L361.065 27.7233ZM364.808 28.3755C366.115 28.5248 367.423 28.7676 368.733 29.1045L369.231 27.1675C367.834 26.8083 366.436 26.5485 365.036 26.3885L364.808 28.3755ZM368.733 29.1045C370.001 29.4305 371.126 29.8974 372.117 30.4988L373.155 28.7892C371.98 28.076 370.67 27.5375 369.231 27.1675L368.733 29.1045ZM372.153 30.5196C373.12 31.0529 373.904 31.8009 374.512 32.7814L376.212 31.7266C375.428 30.4644 374.395 29.4724 373.119 28.7684L372.153 30.5196ZM374.521 32.7948C375.081 33.6655 375.406 34.8885 375.406 36.546H377.406C377.406 34.6462 377.035 33.0078 376.203 31.7132L374.521 32.7948ZM375.406 36.546C375.406 38.2626 374.897 39.7681 373.873 41.0983L375.459 42.3177C376.755 40.6319 377.406 38.696 377.406 36.546H375.406ZM373.881 41.0884C372.858 42.3847 371.34 43.4522 369.26 44.2551L369.98 46.1209C372.308 45.2224 374.154 43.9699 375.451 42.3276L373.881 41.0884ZM369.254 44.2572C367.238 45.0493 364.722 45.464 361.674 45.464V47.464C364.89 47.464 367.671 47.028 369.986 46.1188L369.254 44.2572ZM381.988 46H380.988V47H381.988V46ZM381.988 14.796V13.796H380.988V14.796H381.988ZM391.036 14.796H392.036V13.796H391.036V14.796ZM391.036 46V47H392.036V46H391.036ZM382.453 8.996L381.773 9.72976V9.72976L382.453 8.996ZM382.453 1.804L383.132 2.53776V2.53776L382.453 1.804ZM390.573 1.746L389.908 2.49341L389.916 2.50041L389.924 2.50724L390.573 1.746ZM390.573 8.996L391.266 9.71683L391.266 9.71632L390.573 8.996ZM382.988 46V14.796H380.988V46H382.988ZM381.988 15.796H391.036V13.796H381.988V15.796ZM390.036 14.796V46H392.036V14.796H390.036ZM391.036 45H381.988V47H391.036V45ZM386.513 9.446C385.056 9.446 383.96 9.02927 383.132 8.26224L381.773 9.72976C383.033 10.8961 384.643 11.446 386.513 11.446V9.446ZM383.132 8.26224C382.294 7.48602 381.887 6.55385 381.887 5.4H379.887C379.887 7.10747 380.523 8.57265 381.773 9.72976L383.132 8.26224ZM381.887 5.4C381.887 4.24614 382.294 3.31398 383.132 2.53776L381.773 1.07024C380.523 2.22735 379.887 3.69252 379.887 5.4H381.887ZM383.132 2.53776C383.96 1.77072 385.056 1.354 386.513 1.354V-0.646003C384.643 -0.646003 383.033 -0.0960608 381.773 1.07024L383.132 2.53776ZM386.513 1.354C387.979 1.354 389.081 1.75805 389.908 2.49341L391.237 0.99859C389.976 -0.122055 388.371 -0.646003 386.513 -0.646003V1.354ZM389.924 2.50724C390.734 3.19738 391.138 4.07384 391.138 5.226H393.138C393.138 3.51682 392.499 2.07328 391.221 0.984756L389.924 2.50724ZM391.138 5.226C391.138 6.47458 390.718 7.46724 389.879 8.27568L391.266 9.71632C392.515 8.51409 393.138 6.99342 393.138 5.226H391.138ZM389.879 8.27517C389.1 9.02496 388.016 9.446 386.513 9.446V11.446C388.412 11.446 390.035 10.9004 391.266 9.71683L389.879 8.27517ZM425.012 15.84L424.55 16.7272L424.561 16.7327L424.572 16.7379L425.012 15.84ZM429.652 20.364L428.775 20.844L428.778 20.8511L429.652 20.364ZM431.334 46V47H432.334V46H431.334ZM422.286 46H421.286V47H422.286V46ZM420.604 23.96L419.862 24.6303L419.868 24.6368L419.874 24.6432L420.604 23.96ZM412.078 23.09L412.537 23.9783L412.548 23.9724L412.078 23.09ZM409.41 25.816L408.527 25.3468L408.521 25.3577L408.515 25.3688L409.41 25.816ZM408.482 46V47H409.482V46H408.482ZM399.434 46H398.434V47H399.434V46ZM399.434 14.796V13.796H398.434V14.796H399.434ZM408.076 14.796H409.076V13.796H408.076V14.796ZM408.076 23.438L407.227 23.9663L409.076 26.938V23.438H408.076ZM406.452 20.828L405.571 20.3549L405.297 20.8648L405.603 21.3563L406.452 20.828ZM411.266 16.014L411.739 16.895L411.266 16.014ZM418.4 15.332C420.736 15.332 422.778 15.8055 424.55 16.7272L425.473 14.9528C423.379 13.8638 421.013 13.332 418.4 13.332V15.332ZM424.572 16.7379C426.346 17.6078 427.746 18.9636 428.775 20.844L430.529 19.884C429.315 17.6658 427.621 16.0055 425.452 14.9421L424.572 16.7379ZM428.778 20.8511C429.791 22.6672 430.334 25.0745 430.334 28.136H432.334C432.334 24.8561 431.755 22.0822 430.525 19.8769L428.778 20.8511ZM430.334 28.136V46H432.334V28.136H430.334ZM431.334 45H422.286V47H431.334V45ZM423.286 46V29.528H421.286V46H423.286ZM423.286 29.528C423.286 26.8918 422.701 24.7382 421.334 23.2768L419.874 24.6432C420.749 25.5792 421.286 27.1376 421.286 29.528H423.286ZM421.346 23.2897C420.029 21.8316 418.183 21.162 415.964 21.162V23.162C417.766 23.162 419.013 23.6911 419.862 24.6303L421.346 23.2897ZM415.964 21.162C414.384 21.162 412.925 21.505 411.607 22.2076L412.548 23.9724C413.551 23.4376 414.682 23.162 415.964 23.162V21.162ZM411.618 22.2018C410.297 22.8853 409.268 23.9506 408.527 25.3468L410.293 26.2852C410.866 25.2068 411.616 24.4547 412.537 23.9782L411.618 22.2018ZM408.515 25.3688C407.805 26.7889 407.482 28.5414 407.482 30.572H409.482C409.482 28.7359 409.777 27.3177 410.304 26.2632L408.515 25.3688ZM407.482 30.572V46H409.482V30.572H407.482ZM408.482 45H399.434V47H408.482V45ZM400.434 46V14.796H398.434V46H400.434ZM399.434 15.796H408.076V13.796H399.434V15.796ZM407.076 14.796V23.438H409.076V14.796H407.076ZM408.925 22.9097L407.301 20.2997L405.603 21.3563L407.227 23.9663L408.925 22.9097ZM407.333 21.3011C408.361 19.3862 409.824 17.9234 411.739 16.895L410.793 15.133C408.532 16.3473 406.785 18.0938 405.571 20.3549L407.333 21.3011ZM411.739 16.895C413.664 15.8612 415.876 15.332 418.4 15.332V13.332C415.588 13.332 413.044 13.9242 410.793 15.133L411.739 16.895ZM445.852 44.376L445.389 45.2626L445.395 45.2653L445.852 44.376ZM439.646 38.692L438.79 39.2085L438.793 39.2146L439.646 38.692ZM439.588 22.104L438.732 21.5875L438.729 21.5915L439.588 22.104ZM445.562 16.42L446.036 17.3005L446.046 17.2948L445.562 16.42ZM462.324 16.304L461.849 17.184L461.857 17.1885L461.866 17.1928L462.324 16.304ZM468.182 21.872L467.32 22.3784L467.323 22.3845L468.182 21.872ZM470.27 31.732L471.266 31.8225L471.266 31.815L470.27 31.732ZM470.154 32.95V33.95H471.059L471.149 33.0495L470.154 32.95ZM444.808 32.95H443.808V33.95H444.808V32.95ZM444.808 27.672V26.672H443.808V27.672H444.808ZM465.398 27.672L465.808 28.5839L465.398 26.672V27.672ZM461.918 29.238H460.918V30.7846L462.328 30.1499L461.918 29.238ZM460.932 25.004L460.055 25.4848V25.4848L460.932 25.004ZM458.206 22.22L457.691 23.0775L457.702 23.0839L457.713 23.09L458.206 22.22ZM450.028 22.22L450.521 23.0901L450.53 23.0848L450.028 22.22ZM447.302 25.062L448.179 25.5429L448.185 25.5312L447.302 25.062ZM447.418 35.27L446.545 35.7578L446.554 35.7732L446.563 35.7883L447.418 35.27ZM450.608 38.228L450.151 39.1173L450.166 39.125L450.181 39.1322L450.608 38.228ZM459.83 38.46L459.463 37.5295L459.454 37.5335L459.83 38.46ZM463.31 36.198L464.045 35.5201L463.352 34.7689L462.616 35.4777L463.31 36.198ZM468.124 41.418L468.874 42.079L469.47 41.4027L468.859 40.7401L468.124 41.418ZM462.73 45.188L463.096 46.1188L463.103 46.1159L463.11 46.113L462.73 45.188ZM455.248 45.464C451.823 45.464 448.852 44.7946 446.309 43.4867L445.395 45.2653C448.265 46.7414 451.558 47.464 455.248 47.464V45.464ZM446.315 43.4894C443.795 42.1751 441.867 40.4015 440.499 38.1694L438.793 39.2146C440.364 41.7772 442.573 43.7929 445.389 45.2626L446.315 43.4894ZM440.502 38.1755C439.135 35.9089 438.442 33.3257 438.442 30.398H436.442C436.442 33.6569 437.218 36.6031 438.79 39.2085L440.502 38.1755ZM438.442 30.398C438.442 27.4239 439.119 24.8406 440.447 22.6165L438.729 21.5915C437.195 24.1621 436.442 27.1081 436.442 30.398H438.442ZM440.444 22.6205C441.821 20.3384 443.68 18.5692 446.036 17.3005L445.088 15.5395C442.417 16.9775 440.294 18.9976 438.732 21.5875L440.444 22.6205ZM446.046 17.2948C448.397 15.9932 451.069 15.332 454.088 15.332V13.332C450.766 13.332 447.754 14.0628 445.077 15.5452L446.046 17.2948ZM454.088 15.332C456.994 15.332 459.574 15.956 461.849 17.184L462.799 15.424C460.202 14.0226 457.291 13.332 454.088 13.332V15.332ZM461.866 17.1928C464.17 18.3808 465.983 20.103 467.32 22.3784L469.044 21.3656C467.519 18.769 465.428 16.7792 462.782 15.4152L461.866 17.1928ZM467.323 22.3845C468.644 24.5978 469.328 27.2934 469.328 30.514H471.328C471.328 27.0066 470.581 23.9408 469.041 21.3595L467.323 22.3845ZM469.328 30.514C469.328 30.8268 469.31 31.204 469.273 31.649L471.266 31.815C471.307 31.332 471.328 30.8972 471.328 30.514H469.328ZM469.274 31.6415C469.236 32.0641 469.197 32.4671 469.159 32.8505L471.149 33.0495C471.188 32.6596 471.227 32.2506 471.266 31.8225L469.274 31.6415ZM470.154 31.95H444.808V33.95H470.154V31.95ZM445.808 32.95V27.672H443.808V32.95H445.808ZM444.808 28.672H465.398V26.672H444.808V28.672ZM464.988 26.7601L461.508 28.3261L462.328 30.1499L465.808 28.5839L464.988 26.7601ZM462.918 29.238C462.918 27.4775 462.561 25.8946 461.809 24.5232L460.055 25.4848C460.618 26.5107 460.918 27.7505 460.918 29.238H462.918ZM461.809 24.5232C461.064 23.166 460.025 22.1013 458.699 21.35L457.713 23.09C458.707 23.6534 459.485 24.4447 460.055 25.4848L461.809 24.5232ZM458.72 21.3625C457.384 20.5605 455.847 20.176 454.146 20.176V22.176C455.538 22.176 456.708 22.4875 457.691 23.0775L458.72 21.3625ZM454.146 20.176C452.444 20.176 450.894 20.5607 449.526 21.3552L450.53 23.0848C451.559 22.4873 452.755 22.176 454.146 22.176V20.176ZM449.535 21.35C448.201 22.106 447.161 23.1965 446.419 24.5928L448.185 25.5312C448.758 24.4529 449.535 23.6487 450.521 23.09L449.535 21.35ZM446.425 24.5812C445.671 25.9559 445.316 27.5593 445.316 29.354H447.316C447.316 27.8233 447.618 26.5654 448.179 25.5428L446.425 24.5812ZM445.316 29.354V30.746H447.316V29.354H445.316ZM445.316 30.746C445.316 32.5956 445.717 34.2756 446.545 35.7578L448.291 34.7822C447.65 33.6351 447.316 32.2991 447.316 30.746H445.316ZM446.563 35.7883C447.434 37.2256 448.636 38.3385 450.151 39.1173L451.065 37.3387C449.873 36.7255 448.949 35.8664 448.273 34.7517L446.563 35.7883ZM450.181 39.1322C451.731 39.8643 453.506 40.214 455.48 40.214V38.214C453.742 38.214 452.269 37.9064 451.035 37.3237L450.181 39.1322ZM455.48 40.214C457.241 40.214 458.824 39.948 460.206 39.3865L459.454 37.5335C458.361 37.9773 457.044 38.214 455.48 38.214V40.214ZM460.196 39.3904C461.601 38.8371 462.871 38.0092 464.004 36.9183L462.616 35.4777C461.661 36.3975 460.611 37.0776 459.463 37.5296L460.196 39.3904ZM462.575 36.8759L467.389 42.0959L468.859 40.7401L464.045 35.5201L462.575 36.8759ZM467.374 40.757C466.053 42.2565 464.385 43.4272 462.35 44.263L463.11 46.113C465.405 45.1702 467.334 43.8275 468.874 42.079L467.374 40.757ZM462.364 44.2572C460.337 45.0535 457.971 45.464 455.248 45.464V47.464C458.17 47.464 460.792 47.0238 463.096 46.1188L462.364 44.2572ZM479.136 45.536L478.875 46.5015L478.884 46.5039L478.893 46.5061L479.136 45.536ZM473.336 43.1L472.429 42.6789L472.07 43.4516L472.776 43.9286L473.336 43.1ZM476.352 36.604L476.88 35.7547L475.92 35.1584L475.445 36.1829L476.352 36.604ZM481.398 38.808L481.11 39.7658L481.122 39.7692L481.133 39.7723L481.398 38.808ZM491.606 38.866L491.114 37.9954L491.105 38.0002L491.097 38.0051L491.606 38.866ZM491.896 35.154L491.389 36.0159L491.418 36.0332L491.449 36.0484L491.896 35.154ZM489.228 34.284L489.058 35.2695L489.228 34.284ZM485.516 33.704L485.37 34.6934L485.374 34.694L485.516 33.704ZM481.514 32.95L481.265 33.9185L481.278 33.9219L481.291 33.9249L481.514 32.95ZM477.802 31.442L478.307 30.5793L477.802 31.442ZM475.076 28.774L474.213 29.2797L474.219 29.2906L474.226 29.3014L475.076 28.774ZM475.772 19.204L474.979 18.5943L474.974 18.6008L474.969 18.6073L475.772 19.204ZM480.76 15.666L481.125 16.5968L481.133 16.5939L481.14 16.591L480.76 15.666ZM495.028 15.028L495.234 14.0494L495.028 15.028ZM500.538 17.058L501.443 17.4822L501.825 16.668L501.056 16.2025L500.538 17.058ZM497.522 23.496L497.014 24.3574L497.961 24.9159L498.427 23.9202L497.522 23.496ZM492.94 21.698L492.715 22.6724L492.729 22.6757L492.744 22.6786L492.94 21.698ZM484.124 21.988L483.62 21.1242L484.124 21.988ZM483.718 25.816L483.211 26.6779L483.221 26.6842L483.232 26.6902L483.718 25.816ZM490.098 27.382L489.952 28.3714L489.968 28.3737L489.984 28.3755L490.098 27.382ZM494.158 28.136L494.407 27.1675L494.158 28.136ZM497.812 29.644L497.293 30.4988L497.311 30.5096L497.329 30.5196L497.812 29.644ZM500.538 32.254L499.688 32.7814L499.692 32.7881L499.697 32.7948L500.538 32.254ZM499.842 41.708L500.627 42.3277L500.634 42.3177L499.842 41.708ZM494.796 45.188L494.436 44.2551L494.43 44.2572L494.796 45.188ZM486.85 45.464C484.26 45.464 481.77 45.1638 479.378 44.5659L478.893 46.5061C481.451 47.1455 484.104 47.464 486.85 47.464V45.464ZM479.396 44.5705C477.022 43.9299 475.203 43.1548 473.896 42.2714L472.776 43.9286C474.33 44.9785 476.377 45.8274 478.875 46.5015L479.396 44.5705ZM474.243 43.5211L477.259 37.0251L475.445 36.1829L472.429 42.6789L474.243 43.5211ZM475.824 37.4533C477.343 38.3974 479.109 39.1653 481.11 39.7658L481.685 37.8502C479.82 37.2907 478.222 36.5893 476.88 35.7547L475.824 37.4533ZM481.133 39.7723C483.185 40.3355 485.207 40.62 487.198 40.62V38.62C485.399 38.62 483.555 38.3632 481.663 37.8437L481.133 39.7723ZM487.198 40.62C489.306 40.62 491.015 40.3768 492.115 39.7269L491.097 38.0051C490.496 38.3605 489.265 38.62 487.198 38.62V40.62ZM492.098 39.7366C493.245 39.0882 493.94 38.088 493.94 36.778H491.94C491.94 37.2467 491.745 37.6385 491.114 37.9954L492.098 39.7366ZM493.94 36.778C493.94 36.2468 493.812 35.7341 493.52 35.2802C493.23 34.8296 492.818 34.4971 492.343 34.2596L491.449 36.0484C491.67 36.1589 491.779 36.271 491.838 36.3618C491.894 36.4492 491.94 36.5745 491.94 36.778H493.94ZM492.403 34.2921C491.604 33.8219 490.585 33.5033 489.398 33.2985L489.058 35.2695C490.113 35.4514 490.873 35.7127 491.389 36.0159L492.403 34.2921ZM489.398 33.2985C488.265 33.1033 487.018 32.9085 485.657 32.7141L485.374 34.694C486.72 34.8862 487.948 35.078 489.058 35.2695L489.398 33.2985ZM485.661 32.7146C484.374 32.5253 483.065 32.2789 481.737 31.9751L481.291 33.9249C482.669 34.2398 484.029 34.496 485.37 34.6934L485.661 32.7146ZM481.763 31.9815C480.493 31.6549 479.343 31.1862 478.307 30.5793L477.296 32.3047C478.503 33.0124 479.828 33.5491 481.265 33.9185L481.763 31.9815ZM478.307 30.5793C477.329 30.0055 476.537 29.2321 475.925 28.2466L474.226 29.3014C475.006 30.5585 476.032 31.5639 477.296 32.3047L478.307 30.5793ZM475.938 28.2683C475.398 27.3467 475.09 26.0877 475.09 24.424H473.09C473.09 26.3176 473.439 27.9586 474.213 29.2797L475.938 28.2683ZM475.09 24.424C475.09 22.6556 475.588 21.1273 476.574 19.8007L474.969 18.6073C473.713 20.2967 473.09 22.2484 473.09 24.424H475.09ZM476.564 19.8137C477.592 18.4784 479.091 17.3959 481.125 16.5968L480.394 14.7352C478.098 15.6375 476.272 16.9136 474.979 18.5943L476.564 19.8137ZM481.14 16.591C483.155 15.7632 485.61 15.332 488.532 15.332V13.332C485.421 13.332 482.695 13.7901 480.38 14.741L481.14 16.591ZM488.532 15.332C490.585 15.332 492.682 15.556 494.822 16.0065L495.234 14.0494C492.966 13.572 490.732 13.332 488.532 13.332V15.332ZM494.822 16.0065C496.948 16.4542 498.672 17.0974 500.02 17.9135L501.056 16.2025C499.465 15.2399 497.516 14.5298 495.234 14.0494L494.822 16.0065ZM499.632 16.6338L496.616 23.0718L498.427 23.9202L501.443 17.4822L499.632 16.6338ZM498.03 22.6346C496.436 21.6946 494.804 21.051 493.136 20.7174L492.744 22.6786C494.169 22.9637 495.592 23.5187 497.014 24.3574L498.03 22.6346ZM493.165 20.7236C491.589 20.36 490.044 20.176 488.532 20.176V22.176C489.881 22.176 491.275 22.34 492.715 22.6724L493.165 20.7236ZM488.532 20.176C486.474 20.176 484.784 20.4454 483.62 21.1242L484.628 22.8518C485.32 22.4479 486.568 22.176 488.532 22.176V20.176ZM483.62 21.1242C482.478 21.7902 481.732 22.7732 481.732 24.076H483.732C483.732 23.6775 483.913 23.2685 484.628 22.8518L483.62 21.1242ZM481.732 24.076C481.732 25.1976 482.243 26.1085 483.211 26.6779L484.225 24.9541C483.878 24.7502 483.732 24.5011 483.732 24.076H481.732ZM483.232 26.6902C484.046 27.1423 485.06 27.4789 486.241 27.7233L486.646 25.7647C485.585 25.5451 484.781 25.263 484.203 24.9418L483.232 26.6902ZM486.241 27.7233C487.384 27.9597 488.621 28.1756 489.952 28.3714L490.243 26.3926C488.945 26.2017 487.746 25.9923 486.646 25.7647L486.241 27.7233ZM489.984 28.3755C491.291 28.5248 492.599 28.7676 493.909 29.1045L494.407 27.1675C493.01 26.8083 491.612 26.5485 490.211 26.3885L489.984 28.3755ZM493.909 29.1045C495.177 29.4305 496.302 29.8974 497.293 30.4988L498.331 28.7892C497.156 28.076 495.846 27.5375 494.407 27.1675L493.909 29.1045ZM497.329 30.5196C498.295 31.0529 499.08 31.8009 499.688 32.7814L501.387 31.7266C500.604 30.4644 499.571 29.4724 498.295 28.7684L497.329 30.5196ZM499.697 32.7948C500.256 33.6655 500.582 34.8885 500.582 36.546H502.582C502.582 34.6462 502.211 33.0078 501.379 31.7132L499.697 32.7948ZM500.582 36.546C500.582 38.2626 500.072 39.7681 499.049 41.0983L500.634 42.3177C501.931 40.6319 502.582 38.696 502.582 36.546H500.582ZM499.057 41.0884C498.033 42.3847 496.516 43.4522 494.436 44.2551L495.156 46.1209C497.484 45.2224 499.33 43.9699 500.627 42.3276L499.057 41.0884ZM494.43 44.2572C492.414 45.0493 489.897 45.464 486.85 45.464V47.464C490.066 47.464 492.847 47.028 495.161 46.1188L494.43 44.2572ZM509.948 45.536L509.688 46.5015L509.697 46.5039L509.706 46.5061L509.948 45.536ZM504.148 43.1L503.241 42.6789L502.883 43.4516L503.588 43.9286L504.148 43.1ZM507.164 36.604L507.692 35.7547L506.733 35.1584L506.257 36.1829L507.164 36.604ZM512.21 38.808L511.923 39.7658L511.934 39.7692L511.946 39.7723L512.21 38.808ZM522.418 38.866L521.926 37.9954L521.918 38.0002L521.91 38.0051L522.418 38.866ZM522.708 35.154L522.201 36.0159L522.231 36.0332L522.261 36.0484L522.708 35.154ZM520.04 34.284L519.87 35.2695L520.04 34.284ZM516.328 33.704L516.183 34.6934L516.187 34.694L516.328 33.704ZM512.326 32.95L512.077 33.9185L512.09 33.9219L512.103 33.9249L512.326 32.95ZM508.614 31.442L509.12 30.5793L508.614 31.442ZM505.888 28.774L505.026 29.2797L505.032 29.2906L505.039 29.3014L505.888 28.774ZM506.584 19.204L505.792 18.5943L505.787 18.6008L505.782 18.6073L506.584 19.204ZM511.572 15.666L511.938 16.5968L511.945 16.5939L511.952 16.591L511.572 15.666ZM525.84 15.028L526.046 14.0494L525.84 15.028ZM531.35 17.058L532.256 17.4822L532.637 16.668L531.868 16.2025L531.35 17.058ZM528.334 23.496L527.826 24.3574L528.773 24.9159L529.24 23.9202L528.334 23.496ZM523.752 21.698L523.527 22.6724L523.542 22.6757L523.556 22.6786L523.752 21.698ZM514.936 21.988L514.432 21.1242L514.936 21.988ZM514.53 25.816L514.023 26.6779L514.034 26.6842L514.045 26.6902L514.53 25.816ZM520.91 27.382L520.765 28.3714L520.781 28.3737L520.797 28.3755L520.91 27.382ZM524.97 28.136L525.219 27.1675L524.97 28.136ZM528.624 29.644L528.105 30.4988L528.123 30.5096L528.141 30.5196L528.624 29.644ZM531.35 32.254L530.501 32.7814L530.505 32.7881L530.509 32.7948L531.35 32.254ZM530.654 41.708L531.439 42.3277L531.447 42.3177L530.654 41.708ZM525.608 45.188L525.248 44.2551L525.243 44.2572L525.608 45.188ZM517.662 45.464C515.072 45.464 512.583 45.1638 510.191 44.5659L509.706 46.5061C512.263 47.1455 514.916 47.464 517.662 47.464V45.464ZM510.209 44.5705C507.835 43.9299 506.016 43.1548 504.708 42.2714L503.588 43.9286C505.142 44.9785 507.19 45.8274 509.688 46.5015L510.209 44.5705ZM505.055 43.5211L508.071 37.0251L506.257 36.1829L503.241 42.6789L505.055 43.5211ZM506.636 37.4533C508.155 38.3974 509.921 39.1653 511.923 39.7658L512.498 37.8502C510.633 37.2907 509.035 36.5893 507.692 35.7547L506.636 37.4533ZM511.946 39.7723C513.997 40.3355 516.019 40.62 518.01 40.62V38.62C516.212 38.62 514.368 38.3632 512.475 37.8437L511.946 39.7723ZM518.01 40.62C520.119 40.62 521.827 40.3768 522.927 39.7269L521.91 38.0051C521.308 38.3605 520.078 38.62 518.01 38.62V40.62ZM522.91 39.7366C524.057 39.0882 524.752 38.088 524.752 36.778H522.752C522.752 37.2467 522.558 37.6385 521.926 37.9954L522.91 39.7366ZM524.752 36.778C524.752 36.2468 524.624 35.7341 524.332 35.2802C524.043 34.8296 523.631 34.4971 523.156 34.2596L522.261 36.0484C522.482 36.1589 522.592 36.271 522.65 36.3618C522.706 36.4492 522.752 36.5745 522.752 36.778H524.752ZM523.215 34.2921C522.416 33.8219 521.398 33.5033 520.21 33.2985L519.87 35.2695C520.926 35.4514 521.686 35.7127 522.201 36.0159L523.215 34.2921ZM520.21 33.2985C519.078 33.1033 517.831 32.9085 516.47 32.7141L516.187 34.694C517.532 34.8862 518.76 35.078 519.87 35.2695L520.21 33.2985ZM516.474 32.7146C515.186 32.5253 513.878 32.2789 512.549 31.9751L512.103 33.9249C513.481 34.2398 514.841 34.496 516.183 34.6934L516.474 32.7146ZM512.575 31.9815C511.305 31.6549 510.155 31.1862 509.12 30.5793L508.109 32.3047C509.316 33.0124 510.641 33.5491 512.077 33.9185L512.575 31.9815ZM509.12 30.5793C508.141 30.0055 507.35 29.2321 506.738 28.2466L505.039 29.3014C505.819 30.5585 506.845 31.5639 508.109 32.3047L509.12 30.5793ZM506.751 28.2683C506.211 27.3467 505.902 26.0877 505.902 24.424H503.902C503.902 26.3176 504.251 27.9586 505.026 29.2797L506.751 28.2683ZM505.902 24.424C505.902 22.6556 506.4 21.1273 507.387 19.8007L505.782 18.6073C504.526 20.2967 503.902 22.2484 503.902 24.424H505.902ZM507.377 19.8137C508.404 18.4784 509.904 17.3959 511.938 16.5968L511.207 14.7352C508.91 15.6375 507.085 16.9136 505.792 18.5943L507.377 19.8137ZM511.952 16.591C513.968 15.7632 516.423 15.332 519.344 15.332V13.332C516.234 13.332 513.508 13.7901 511.192 14.741L511.952 16.591ZM519.344 15.332C521.398 15.332 523.494 15.556 525.634 16.0065L526.046 14.0494C523.779 13.572 521.544 13.332 519.344 13.332V15.332ZM525.634 16.0065C527.76 16.4542 529.484 17.0974 530.832 17.9135L531.868 16.2025C530.278 15.2399 528.328 14.5298 526.046 14.0494L525.634 16.0065ZM530.445 16.6338L527.429 23.0718L529.24 23.9202L532.256 17.4822L530.445 16.6338ZM528.842 22.6346C527.248 21.6946 525.616 21.051 523.948 20.7174L523.556 22.6786C524.982 22.9637 526.404 23.5187 527.826 24.3574L528.842 22.6346ZM523.977 20.7236C522.401 20.36 520.857 20.176 519.344 20.176V22.176C520.693 22.176 522.087 22.34 523.527 22.6724L523.977 20.7236ZM519.344 20.176C517.287 20.176 515.596 20.4454 514.432 21.1242L515.44 22.8518C516.132 22.4479 517.381 22.176 519.344 22.176V20.176ZM514.432 21.1242C513.291 21.7902 512.544 22.7732 512.544 24.076H514.544C514.544 23.6775 514.726 23.2685 515.44 22.8518L514.432 21.1242ZM512.544 24.076C512.544 25.1976 513.055 26.1085 514.023 26.6779L515.037 24.9541C514.691 24.7502 514.544 24.5011 514.544 24.076H512.544ZM514.045 26.6902C514.859 27.1423 515.873 27.4789 517.054 27.7233L517.459 25.7647C516.397 25.5451 515.594 25.263 515.016 24.9418L514.045 26.6902ZM517.054 27.7233C518.197 27.9597 519.434 28.1756 520.765 28.3714L521.056 26.3926C519.757 26.2017 518.559 25.9923 517.459 25.7647L517.054 27.7233ZM520.797 28.3755C522.103 28.5248 523.411 28.7676 524.721 29.1045L525.219 27.1675C523.823 26.8083 522.424 26.5485 521.024 26.3885L520.797 28.3755ZM524.721 29.1045C525.989 29.4305 527.115 29.8974 528.105 30.4988L529.143 28.7892C527.969 28.076 526.658 27.5375 525.219 27.1675L524.721 29.1045ZM528.141 30.5196C529.108 31.0529 529.892 31.8009 530.501 32.7814L532.2 31.7266C531.416 30.4644 530.383 29.4724 529.107 28.7684L528.141 30.5196ZM530.509 32.7948C531.069 33.6655 531.394 34.8885 531.394 36.546H533.394C533.394 34.6462 533.024 33.0078 532.191 31.7132L530.509 32.7948ZM531.394 36.546C531.394 38.2626 530.885 39.7681 529.862 41.0983L531.447 42.3177C532.744 40.6319 533.394 38.696 533.394 36.546H531.394ZM529.869 41.0884C528.846 42.3847 527.328 43.4522 525.248 44.2551L525.968 46.1209C528.296 45.2224 530.143 43.9699 531.439 42.3276L529.869 41.0884ZM525.243 44.2572C523.226 45.0493 520.71 45.464 517.662 45.464V47.464C520.879 47.464 523.659 47.028 525.974 46.1188L525.243 44.2572ZM544.067 44.376L543.604 45.2626L543.609 45.2653L544.067 44.376ZM537.861 38.692L537.004 39.2085L537.008 39.2146L537.861 38.692ZM537.803 22.104L536.946 21.5875L536.944 21.5915L537.803 22.104ZM543.777 16.42L544.251 17.3005L544.261 17.2948L543.777 16.42ZM560.539 16.304L560.064 17.184L560.072 17.1885L560.081 17.1928L560.539 16.304ZM566.397 21.872L565.534 22.3784L565.538 22.3845L566.397 21.872ZM568.485 31.732L569.481 31.8225L569.481 31.815L568.485 31.732ZM568.369 32.95V33.95H569.274L569.364 33.0495L568.369 32.95ZM543.023 32.95H542.023V33.95H543.023V32.95ZM543.023 27.672V26.672H542.023V27.672H543.023ZM563.613 27.672L564.023 28.5839L563.613 26.672V27.672ZM560.133 29.238H559.133V30.7846L560.543 30.1499L560.133 29.238ZM559.147 25.004L558.27 25.4848V25.4848L559.147 25.004ZM556.421 22.22L555.906 23.0775L555.917 23.0839L555.928 23.09L556.421 22.22ZM548.243 22.22L548.736 23.0901L548.745 23.0848L548.243 22.22ZM545.517 25.062L546.394 25.5429L546.4 25.5312L545.517 25.062ZM545.633 35.27L544.76 35.7578L544.768 35.7732L544.778 35.7883L545.633 35.27ZM548.823 38.228L548.365 39.1173L548.38 39.125L548.396 39.1322L548.823 38.228ZM558.045 38.46L557.678 37.5295L557.668 37.5335L558.045 38.46ZM561.525 36.198L562.26 35.5201L561.567 34.7689L560.831 35.4777L561.525 36.198ZM566.339 41.418L567.089 42.079L567.685 41.4027L567.074 40.7401L566.339 41.418ZM560.945 45.188L561.31 46.1188L561.318 46.1159L561.325 46.113L560.945 45.188ZM553.463 45.464C550.038 45.464 547.067 44.7946 544.524 43.4867L543.609 45.2653C546.48 46.7414 549.773 47.464 553.463 47.464V45.464ZM544.529 43.4894C542.01 42.1751 540.081 40.4015 538.713 38.1694L537.008 39.2146C538.579 41.7772 540.787 43.7929 543.604 45.2626L544.529 43.4894ZM538.717 38.1755C537.35 35.9089 536.657 33.3257 536.657 30.398H534.657C534.657 33.6569 535.433 36.6031 537.005 39.2085L538.717 38.1755ZM536.657 30.398C536.657 27.4239 537.334 24.8406 538.661 22.6165L536.944 21.5915C535.41 24.1621 534.657 27.1081 534.657 30.398H536.657ZM538.659 22.6205C540.036 20.3384 541.895 18.5692 544.251 17.3005L543.303 15.5395C540.632 16.9775 538.509 18.9976 536.946 21.5875L538.659 22.6205ZM544.261 17.2948C546.611 15.9932 549.284 15.332 552.303 15.332V13.332C548.981 13.332 545.969 14.0628 543.292 15.5452L544.261 17.2948ZM552.303 15.332C555.209 15.332 557.788 15.956 560.064 17.184L561.014 15.424C558.417 14.0226 555.506 13.332 552.303 13.332V15.332ZM560.081 17.1928C562.384 18.3808 564.198 20.103 565.534 22.3784L567.259 21.3656C565.734 18.769 563.642 16.7792 560.997 15.4152L560.081 17.1928ZM565.538 22.3845C566.859 24.5978 567.543 27.2934 567.543 30.514H569.543C569.543 27.0066 568.796 23.9408 567.255 21.3595L565.538 22.3845ZM567.543 30.514C567.543 30.8268 567.525 31.204 567.488 31.649L569.481 31.815C569.522 31.332 569.543 30.8972 569.543 30.514H567.543ZM567.489 31.6415C567.45 32.0641 567.412 32.4671 567.374 32.8505L569.364 33.0495C569.403 32.6596 569.442 32.2506 569.481 31.8225L567.489 31.6415ZM568.369 31.95H543.023V33.95H568.369V31.95ZM544.023 32.95V27.672H542.023V32.95H544.023ZM543.023 28.672H563.613V26.672H543.023V28.672ZM563.202 26.7601L559.722 28.3261L560.543 30.1499L564.023 28.5839L563.202 26.7601ZM561.133 29.238C561.133 27.4775 560.776 25.8946 560.024 24.5232L558.27 25.4848C558.833 26.5107 559.133 27.7505 559.133 29.238H561.133ZM560.024 24.5232C559.279 23.166 558.24 22.1013 556.914 21.35L555.928 23.09C556.922 23.6534 557.7 24.4447 558.27 25.4848L560.024 24.5232ZM556.935 21.3625C555.599 20.5605 554.062 20.176 552.361 20.176V22.176C553.753 22.176 554.923 22.4875 555.906 23.0775L556.935 21.3625ZM552.361 20.176C550.659 20.176 549.109 20.5607 547.741 21.3552L548.745 23.0848C549.774 22.4873 550.97 22.176 552.361 22.176V20.176ZM547.75 21.35C546.416 22.106 545.375 23.1965 544.634 24.5928L546.4 25.5312C546.973 24.4529 547.75 23.6487 548.736 23.09L547.75 21.35ZM544.64 24.5812C543.886 25.9559 543.531 27.5593 543.531 29.354H545.531C545.531 27.8233 545.833 26.5654 546.394 25.5428L544.64 24.5812ZM543.531 29.354V30.746H545.531V29.354H543.531ZM543.531 30.746C543.531 32.5956 543.932 34.2756 544.76 35.7578L546.506 34.7822C545.865 33.6351 545.531 32.2991 545.531 30.746H543.531ZM544.778 35.7883C545.649 37.2256 546.851 38.3385 548.365 39.1173L549.28 37.3387C548.088 36.7255 547.164 35.8664 546.488 34.7517L544.778 35.7883ZM548.396 39.1322C549.946 39.8643 551.721 40.214 553.695 40.214V38.214C551.957 38.214 550.484 37.9064 549.25 37.3237L548.396 39.1322ZM553.695 40.214C555.456 40.214 557.039 39.948 558.421 39.3865L557.668 37.5335C556.576 37.9773 555.259 38.214 553.695 38.214V40.214ZM558.411 39.3904C559.816 38.8371 561.086 38.0092 562.218 36.9183L560.831 35.4777C559.876 36.3975 558.826 37.0776 557.678 37.5296L558.411 39.3904ZM560.79 36.8759L565.604 42.0959L567.074 40.7401L562.26 35.5201L560.79 36.8759ZM565.588 40.757C564.267 42.2565 562.6 43.4272 560.565 44.263L561.325 46.113C563.62 45.1702 565.549 43.8275 567.089 42.079L565.588 40.757ZM560.579 44.2572C558.552 45.0535 556.186 45.464 553.463 45.464V47.464C556.385 47.464 559.007 47.0238 561.31 46.1188L560.579 44.2572ZM577.351 45.536L577.09 46.5015L577.099 46.5039L577.108 46.5061L577.351 45.536ZM571.551 43.1L570.644 42.6789L570.285 43.4516L570.991 43.9286L571.551 43.1ZM574.567 36.604L575.095 35.7547L574.135 35.1584L573.66 36.1829L574.567 36.604ZM579.613 38.808L579.325 39.7658L579.337 39.7692L579.348 39.7723L579.613 38.808ZM589.821 38.866L589.329 37.9954L589.32 38.0002L589.312 38.0051L589.821 38.866ZM590.111 35.154L589.604 36.0159L589.633 36.0332L589.663 36.0484L590.111 35.154ZM587.443 34.284L587.273 35.2695L587.443 34.284ZM583.731 33.704L583.585 34.6934L583.589 34.694L583.731 33.704ZM579.729 32.95L579.48 33.9185L579.493 33.9219L579.506 33.9249L579.729 32.95ZM576.017 31.442L576.522 30.5793L576.017 31.442ZM573.291 28.774L572.428 29.2797L572.434 29.2906L572.441 29.3014L573.291 28.774ZM573.987 19.204L573.194 18.5943L573.189 18.6008L573.184 18.6073L573.987 19.204ZM578.975 15.666L579.34 16.5968L579.347 16.5939L579.355 16.591L578.975 15.666ZM593.243 15.028L593.449 14.0494L593.243 15.028ZM598.753 17.058L599.658 17.4822L600.04 16.668L599.27 16.2025L598.753 17.058ZM595.737 23.496L595.229 24.3574L596.176 24.9159L596.642 23.9202L595.737 23.496ZM591.155 21.698L590.93 22.6724L590.944 22.6757L590.958 22.6786L591.155 21.698ZM582.339 21.988L581.835 21.1242L582.339 21.988ZM581.933 25.816L581.426 26.6779L581.436 26.6842L581.447 26.6902L581.933 25.816ZM588.313 27.382L588.167 28.3714L588.183 28.3737L588.199 28.3755L588.313 27.382ZM592.373 28.136L592.622 27.1675L592.373 28.136ZM596.027 29.644L595.508 30.4988L595.525 30.5096L595.544 30.5196L596.027 29.644ZM598.753 32.254L597.903 32.7814L597.907 32.7881L597.911 32.7948L598.753 32.254ZM598.057 41.708L598.842 42.3277L598.849 42.3177L598.057 41.708ZM593.011 45.188L592.651 44.2551L592.645 44.2572L593.011 45.188ZM585.065 45.464C582.475 45.464 579.985 45.1638 577.593 44.5659L577.108 46.5061C579.666 47.1455 582.319 47.464 585.065 47.464V45.464ZM577.611 44.5705C575.237 43.9299 573.418 43.1548 572.11 42.2714L570.991 43.9286C572.545 44.9785 574.592 45.8274 577.09 46.5015L577.611 44.5705ZM572.458 43.5211L575.474 37.0251L573.66 36.1829L570.644 42.6789L572.458 43.5211ZM574.039 37.4533C575.557 38.3974 577.323 39.1653 579.325 39.7658L579.9 37.8502C578.035 37.2907 576.437 36.5893 575.095 35.7547L574.039 37.4533ZM579.348 39.7723C581.399 40.3355 583.422 40.62 585.413 40.62V38.62C583.614 38.62 581.77 38.3632 579.877 37.8437L579.348 39.7723ZM585.413 40.62C587.521 40.62 589.229 40.3768 590.329 39.7269L589.312 38.0051C588.71 38.3605 587.48 38.62 585.413 38.62V40.62ZM590.313 39.7366C591.46 39.0882 592.155 38.088 592.155 36.778H590.155C590.155 37.2467 589.96 37.6385 589.329 37.9954L590.313 39.7366ZM592.155 36.778C592.155 36.2468 592.027 35.7341 591.735 35.2802C591.445 34.8296 591.033 34.4971 590.558 34.2596L589.663 36.0484C589.884 36.1589 589.994 36.271 590.052 36.3618C590.109 36.4492 590.155 36.5745 590.155 36.778H592.155ZM590.618 34.2921C589.818 33.8219 588.8 33.5033 587.613 33.2985L587.273 35.2695C588.328 35.4514 589.088 35.7127 589.604 36.0159L590.618 34.2921ZM587.613 33.2985C586.48 33.1033 585.233 32.9085 583.872 32.7141L583.589 34.694C584.935 34.8862 586.163 35.078 587.273 35.2695L587.613 33.2985ZM583.876 32.7146C582.589 32.5253 581.28 32.2789 579.951 31.9751L579.506 33.9249C580.884 34.2398 582.243 34.496 583.585 34.6934L583.876 32.7146ZM579.978 31.9815C578.708 31.6549 577.558 31.1862 576.522 30.5793L575.511 32.3047C576.718 33.0124 578.043 33.5491 579.48 33.9185L579.978 31.9815ZM576.522 30.5793C575.543 30.0055 574.752 29.2321 574.14 28.2466L572.441 29.3014C573.221 30.5585 574.247 31.5639 575.511 32.3047L576.522 30.5793ZM574.153 28.2683C573.613 27.3467 573.305 26.0877 573.305 24.424H571.305C571.305 26.3176 571.654 27.9586 572.428 29.2797L574.153 28.2683ZM573.305 24.424C573.305 22.6556 573.803 21.1273 574.789 19.8007L573.184 18.6073C571.928 20.2967 571.305 22.2484 571.305 24.424H573.305ZM574.779 19.8137C575.806 18.4784 577.306 17.3959 579.34 16.5968L578.609 14.7352C576.312 15.6375 574.487 16.9136 573.194 18.5943L574.779 19.8137ZM579.355 16.591C581.37 15.7632 583.825 15.332 586.747 15.332V13.332C583.636 13.332 580.91 13.7901 578.595 14.741L579.355 16.591ZM586.747 15.332C588.8 15.332 590.896 15.556 593.037 16.0065L593.449 14.0494C591.181 13.572 588.946 13.332 586.747 13.332V15.332ZM593.037 16.0065C595.163 16.4542 596.886 17.0974 598.235 17.9135L599.27 16.2025C597.68 15.2399 595.73 14.5298 593.449 14.0494L593.037 16.0065ZM597.847 16.6338L594.831 23.0718L596.642 23.9202L599.658 17.4822L597.847 16.6338ZM596.245 22.6346C594.651 21.6946 593.019 21.051 591.351 20.7174L590.958 22.6786C592.384 22.9637 593.807 23.5187 595.229 24.3574L596.245 22.6346ZM591.379 20.7236C589.804 20.36 588.259 20.176 586.747 20.176V22.176C588.096 22.176 589.49 22.34 590.93 22.6724L591.379 20.7236ZM586.747 20.176C584.689 20.176 582.998 20.4454 581.835 21.1242L582.842 22.8518C583.535 22.4479 584.783 22.176 586.747 22.176V20.176ZM581.835 21.1242C580.693 21.7902 579.947 22.7732 579.947 24.076H581.947C581.947 23.6775 582.128 23.2685 582.842 22.8518L581.835 21.1242ZM579.947 24.076C579.947 25.1976 580.458 26.1085 581.426 26.6779L582.44 24.9541C582.093 24.7502 581.947 24.5011 581.947 24.076H579.947ZM581.447 26.6902C582.261 27.1423 583.275 27.4789 584.456 27.7233L584.861 25.7647C583.799 25.5451 582.996 25.263 582.418 24.9418L581.447 26.6902ZM584.456 27.7233C585.599 27.9597 586.836 28.1756 588.167 28.3714L588.458 26.3926C587.16 26.2017 585.961 25.9923 584.861 25.7647L584.456 27.7233ZM588.199 28.3755C589.506 28.5248 590.814 28.7676 592.124 29.1045L592.622 27.1675C591.225 26.8083 589.826 26.5485 588.426 26.3885L588.199 28.3755ZM592.124 29.1045C593.392 29.4305 594.517 29.8974 595.508 30.4988L596.546 28.7892C595.371 28.076 594.06 27.5375 592.622 27.1675L592.124 29.1045ZM595.544 30.5196C596.51 31.0529 597.294 31.8009 597.903 32.7814L599.602 31.7266C598.819 30.4644 597.786 29.4724 596.51 28.7684L595.544 30.5196ZM597.911 32.7948C598.471 33.6655 598.797 34.8885 598.797 36.546H600.797C600.797 34.6462 600.426 33.0078 599.594 31.7132L597.911 32.7948ZM598.797 36.546C598.797 38.2626 598.287 39.7681 597.264 41.0983L598.849 42.3177C600.146 40.6319 600.797 38.696 600.797 36.546H598.797ZM597.272 41.0884C596.248 42.3847 594.731 43.4522 592.651 44.2551L593.371 46.1209C595.699 45.2224 597.545 43.9699 598.841 42.3276L597.272 41.0884ZM592.645 44.2572C590.629 45.0493 588.112 45.464 585.065 45.464V47.464C588.281 47.464 591.062 47.028 593.376 46.1188L592.645 44.2572Z" fill="black"/>
</svg>
